<?xml version="1.0" encoding="utf-8" standalone="no"?>
<!DOCTYPE svg PUBLIC "-//W3C//DTD SVG 1.1//EN"
  "http://www.w3.org/Graphics/SVG/1.1/DTD/svg11.dtd">
<!-- Created with matplotlib (https://matplotlib.org/) -->
<svg height="360pt" version="1.1" viewBox="0 0 504 360" width="504pt" xmlns="http://www.w3.org/2000/svg" xmlns:xlink="http://www.w3.org/1999/xlink">
 <metadata>
  <rdf:RDF xmlns:cc="http://creativecommons.org/ns#" xmlns:dc="http://purl.org/dc/elements/1.1/" xmlns:rdf="http://www.w3.org/1999/02/22-rdf-syntax-ns#">
   <cc:Work>
    <dc:type rdf:resource="http://purl.org/dc/dcmitype/StillImage"/>
    <dc:date>2022-03-21T11:15:12.750986</dc:date>
    <dc:format>image/svg+xml</dc:format>
    <dc:creator>
     <cc:Agent>
      <dc:title>Matplotlib v3.3.4, https://matplotlib.org/</dc:title>
     </cc:Agent>
    </dc:creator>
   </cc:Work>
  </rdf:RDF>
 </metadata>
 <defs>
  <style type="text/css">*{stroke-linecap:butt;stroke-linejoin:round;}</style>
 </defs>
 <g id="figure_1">
  <g id="patch_1">
   <path d="M 0 360 
L 504 360 
L 504 0 
L 0 0 
z
" style="fill:none;"/>
  </g>
  <g id="axes_1">
   <g id="patch_2">
    <path clip-path="url(#p809384ce4c)" d="M 69.3 308.528571 
L 447.3 308.528571 
L 447.3 49.671429 
L 69.3 49.671429 
z
" style="fill:none;stroke:#000000;stroke-linejoin:miter;"/>
   </g>
   <g id="patch_3">
    <path clip-path="url(#p809384ce4c)" d="M 69.3 236.372143 
L 115.29 236.372143 
L 115.29 122.151429 
L 69.3 122.151429 
z
" style="fill:none;stroke:#000000;stroke-linejoin:miter;"/>
   </g>
   <g id="patch_4">
    <path clip-path="url(#p809384ce4c)" d="M 401.31 236.372143 
L 447.3 236.372143 
L 447.3 122.151429 
L 401.31 122.151429 
z
" style="fill:none;stroke:#000000;stroke-linejoin:miter;"/>
   </g>
   <g id="patch_5">
    <path d="M 258.3 308.528571 
Q 258.3 179.1 258.3 49.671429 
" style="fill:none;stroke:#000000;stroke-linecap:round;"/>
   </g>
   <g id="patch_6">
    <path clip-path="url(#p809384ce4c)" d="M 69.3 204.985714 
L 84.735 204.985714 
L 84.735 153.214286 
L 69.3 153.214286 
z
" style="fill:none;stroke:#000000;stroke-linejoin:miter;"/>
   </g>
   <g id="patch_7">
    <path clip-path="url(#p809384ce4c)" d="M 431.865 204.985714 
L 447.3 204.985714 
L 447.3 153.214286 
L 431.865 153.214286 
z
" style="fill:none;stroke:#000000;stroke-linejoin:miter;"/>
   </g>
   <g id="patch_8">
    <path clip-path="url(#p809384ce4c)" d="M 258.3 205.309286 
C 265.066657 205.309286 271.55708 202.54771 276.34183 197.632764 
C 281.126579 192.717817 283.815 186.050784 283.815 179.1 
C 283.815 172.149216 281.126579 165.482183 276.34183 160.567236 
C 271.55708 155.65229 265.066657 152.890714 258.3 152.890714 
C 251.533343 152.890714 245.04292 155.65229 240.25817 160.567236 
C 235.473421 165.482183 232.785 172.149216 232.785 179.1 
C 232.785 186.050784 235.473421 192.717817 240.25817 197.632764 
C 245.04292 202.54771 251.533343 205.309286 258.3 205.309286 
z
" style="fill:none;stroke:#000000;stroke-linejoin:miter;"/>
   </g>
   <g id="patch_9">
    <path clip-path="url(#p809384ce4c)" d="M 258.3 181.397357 
C 258.893127 181.397357 259.46204 181.155293 259.881444 180.724477 
C 260.300848 180.293661 260.5365 179.709266 260.5365 179.1 
C 260.5365 178.490734 260.300848 177.906339 259.881444 177.475523 
C 259.46204 177.044707 258.893127 176.802643 258.3 176.802643 
C 257.706873 176.802643 257.13796 177.044707 256.718556 177.475523 
C 256.299152 177.906339 256.0635 178.490734 256.0635 179.1 
C 256.0635 179.709266 256.299152 180.293661 256.718556 180.724477 
C 257.13796 181.155293 257.706873 181.397357 258.3 181.397357 
z
" style="stroke:#000000;stroke-linejoin:miter;"/>
   </g>
   <g id="patch_10">
    <path clip-path="url(#p809384ce4c)" d="M 416.745 181.397357 
C 417.338127 181.397357 417.90704 181.155293 418.326444 180.724477 
C 418.745848 180.293661 418.9815 179.709266 418.9815 179.1 
C 418.9815 178.490734 418.745848 177.906339 418.326444 177.475523 
C 417.90704 177.044707 417.338127 176.802643 416.745 176.802643 
C 416.151873 176.802643 415.58296 177.044707 415.163556 177.475523 
C 414.744152 177.906339 414.5085 178.490734 414.5085 179.1 
C 414.5085 179.709266 414.744152 180.293661 415.163556 180.724477 
C 415.58296 181.155293 416.151873 181.397357 416.745 181.397357 
z
" style="stroke:#000000;stroke-linejoin:miter;"/>
   </g>
   <g id="patch_11">
    <path clip-path="url(#p809384ce4c)" d="M 99.855 181.397357 
C 100.448127 181.397357 101.01704 181.155293 101.436444 180.724477 
C 101.855848 180.293661 102.0915 179.709266 102.0915 179.1 
C 102.0915 178.490734 101.855848 177.906339 101.436444 177.475523 
C 101.01704 177.044707 100.448127 176.802643 99.855 176.802643 
C 99.261873 176.802643 98.69296 177.044707 98.273556 177.475523 
C 97.854152 177.906339 97.6185 178.490734 97.6185 179.1 
C 97.6185 179.709266 97.854152 180.293661 98.273556 180.724477 
C 98.69296 181.155293 99.261873 181.397357 99.855 181.397357 
z
" style="stroke:#000000;stroke-linejoin:miter;"/>
   </g>
   <g id="patch_12">
    <path clip-path="url(#p809384ce4c)" d="M 116.255726 199.177478 
C 119.109749 196.717503 121.40491 193.645 122.979443 190.176523 
C 124.553976 186.708045 125.37 182.927041 125.37 179.1 
C 125.37 175.272959 124.553976 171.491955 122.979443 168.023477 
C 121.40491 164.555 119.109749 161.482497 116.255726 159.022522 
" style="fill:none;stroke:#000000;stroke-linejoin:miter;"/>
   </g>
   <g id="patch_13">
    <path clip-path="url(#p809384ce4c)" d="M 400.344274 159.022522 
C 397.490251 161.482497 395.19509 164.555 393.620557 168.023477 
C 392.046024 171.491955 391.23 175.272959 391.23 179.1 
C 391.23 182.927041 392.046024 186.708045 393.620557 190.176523 
C 395.19509 193.645 397.490251 196.717503 400.344274 199.177478 
" style="fill:none;stroke:#000000;stroke-linejoin:miter;"/>
   </g>
   <g id="patch_14">
    <path d="M 153.297103 229.240181 
Q 148.05011 204.986225 143.03952 181.825024 
" style="fill:none;stroke:#39ff14;stroke-linecap:round;"/>
    <path d="M 141.930516 186.157473 
L 143.03952 181.825024 
L 145.840076 185.311696 
" style="fill:none;stroke:#39ff14;stroke-linecap:round;"/>
   </g>
   <g id="patch_15">
    <path d="M 147.55912 180.205809 
Q 175.140489 208.383714 201.939791 235.762637 
" style="fill:none;stroke:#39ff14;stroke-linecap:round;"/>
    <path d="M 200.571046 231.50511 
L 201.939791 235.762637 
L 197.712522 234.303118 
" style="fill:none;stroke:#39ff14;stroke-linecap:round;"/>
   </g>
   <g id="patch_16">
    <path d="M 333.865278 303.455566 
Q 313.425392 297.689039 294.061538 292.226083 
" style="fill:none;stroke:#39ff14;stroke-linecap:round;"/>
    <path d="M 297.368221 295.237038 
L 294.061538 292.226083 
L 298.454311 291.38731 
" style="fill:none;stroke:#39ff14;stroke-linecap:round;"/>
   </g>
   <g id="patch_17">
    <path d="M 290.193673 279.03959 
Q 286.019977 243.975881 281.97843 210.022368 
" style="fill:none;stroke:#39ff14;stroke-linecap:round;"/>
    <path d="M 280.46524 214.230724 
L 281.97843 210.022368 
L 284.4372 213.757934 
" style="fill:none;stroke:#39ff14;stroke-linecap:round;"/>
   </g>
   <g id="patch_18">
    <path d="M 283.604128 203.026788 
Q 289.48528 175.539406 295.132513 149.145315 
" style="fill:none;stroke:#39ff14;stroke-linecap:round;"/>
    <path d="M 292.339885 152.638341 
L 295.132513 149.145315 
L 296.251357 153.475232 
" style="fill:none;stroke:#39ff14;stroke-linecap:round;"/>
   </g>
   <g id="patch_19">
    <path d="M 309.211414 140.324692 
Q 308.070068 159.522786 306.995073 177.604817 
" style="fill:none;stroke:#39ff14;stroke-linecap:round;"/>
    <path d="M 309.228933 173.73056 
L 306.995073 177.604817 
L 305.235983 173.493175 
" style="fill:none;stroke:#39ff14;stroke-linecap:round;"/>
   </g>
   <g id="patch_20">
    <path d="M 313.933116 187.867543 
Q 348.862812 238.475809 383.157424 288.163928 
" style="fill:none;stroke:#39ff14;stroke-linecap:round;"/>
    <path d="M 382.531291 283.73584 
L 383.157424 288.163928 
L 379.239275 286.007982 
" style="fill:none;stroke:#39ff14;stroke-linecap:round;"/>
   </g>
   <g id="patch_21">
    <path d="M 391.624442 288.861693 
Q 395.639956 278.274759 399.258973 268.733191 
" style="fill:none;stroke:#39ff14;stroke-linecap:round;"/>
    <path d="M 395.970416 271.763932 
L 399.258973 268.733191 
L 399.710432 273.182481 
" style="fill:none;stroke:#39ff14;stroke-linecap:round;"/>
   </g>
   <g id="patch_22">
    <path d="M 382.044282 286.876224 
Q 395.954723 240.90306 409.541369 196.000016 
" style="fill:none;stroke:#39ff14;stroke-linecap:round;"/>
    <path d="M 406.468639 199.249374 
L 409.541369 196.000016 
L 410.297217 200.407815 
" style="fill:none;stroke:#39ff14;stroke-linecap:round;"/>
   </g>
   <g id="patch_23">
    <path d="M 416.658444 197.180205 
Q 431.233943 184.116305 444.976879 171.798623 
" style="fill:none;stroke:#00ffff;stroke-linecap:round;"/>
    <path d="M 440.663342 172.979042 
L 444.976879 171.798623 
L 443.333092 175.957705 
" style="fill:none;stroke:#00ffff;stroke-linecap:round;"/>
   </g>
   <g id="patch_24">
    <path d="M 144.377051 178.776429 
Q 145.268525 178.776429 145.041966 178.776429 
" style="fill:none;stroke:#ff00ff;stroke-linecap:round;"/>
    <path d="M 141.041966 176.776429 
L 145.041966 178.776429 
L 141.041966 180.776429 
" style="fill:none;stroke:#ff00ff;stroke-linecap:round;"/>
   </g>
   <g id="patch_25">
    <path d="M 205.908121 238.886418 
Q 269.955251 270.994411 333.002908 302.601351 
" style="fill:none;stroke:#ff00ff;stroke-linecap:round;"/>
    <path d="M 330.323399 299.020816 
L 333.002908 302.601351 
L 328.530774 302.596637 
" style="fill:none;stroke:#ff00ff;stroke-linecap:round;"/>
   </g>
   <g id="patch_26">
    <path d="M 290.938645 289.384771 
Q 290.745047 286.202915 290.619349 284.137029 
" style="fill:none;stroke:#ff00ff;stroke-linecap:round;"/>
    <path d="M 288.865969 288.251109 
L 290.619349 284.137029 
L 292.858586 288.008181 
" style="fill:none;stroke:#ff00ff;stroke-linecap:round;"/>
   </g>
   <g id="patch_27">
    <path d="M 282.868154 205.376275 
Q 283.026577 205.180995 282.480626 205.853964 
" style="fill:none;stroke:#ff00ff;stroke-linecap:round;"/>
    <path d="M 278.407408 207.700283 
L 282.480626 205.853964 
L 281.513751 210.22033 
" style="fill:none;stroke:#ff00ff;stroke-linecap:round;"/>
   </g>
   <g id="patch_28">
    <path d="M 297.521115 145.100353 
Q 302.559207 142.211878 306.627369 139.879492 
" style="fill:none;stroke:#ff00ff;stroke-linecap:round;"/>
    <path d="M 302.162477 140.133946 
L 306.627369 139.879492 
L 304.151997 143.604077 
" style="fill:none;stroke:#ff00ff;stroke-linecap:round;"/>
   </g>
   <g id="patch_29">
    <path d="M 308.279949 182.068863 
Q 309.802235 183.467971 310.50135 184.110516 
" style="fill:none;stroke:#ff00ff;stroke-linecap:round;"/>
    <path d="M 308.909663 179.931218 
L 310.50135 184.110516 
L 306.2029 182.876286 
" style="fill:none;stroke:#ff00ff;stroke-linecap:round;"/>
   </g>
   <g id="patch_30">
    <path d="M 386.931819 290.732143 
Q 387.921779 290.732143 387.793706 290.732143 
" style="fill:none;stroke:#ff00ff;stroke-linecap:round;"/>
    <path d="M 383.793706 288.732143 
L 387.793706 290.732143 
L 383.793706 292.732143 
" style="fill:none;stroke:#ff00ff;stroke-linecap:round;"/>
   </g>
   <g id="patch_31">
    <path d="M 380.631665 288.790714 
Q 381.048333 288.790714 380.346966 288.790714 
" style="fill:none;stroke:#ff00ff;stroke-linecap:round;"/>
    <path d="M 376.346966 286.790714 
L 380.346966 288.790714 
L 376.346966 290.790714 
" style="fill:none;stroke:#ff00ff;stroke-linecap:round;"/>
   </g>
   <g id="text_1">
    <!-- Gerrard @ 54min -->
    <g transform="translate(206.520938 37.2)scale(0.12 -0.12)">
     <defs>
      <path d="M 59.515625 10.40625 
L 59.515625 29.984375 
L 43.40625 29.984375 
L 43.40625 38.09375 
L 69.28125 38.09375 
L 69.28125 6.78125 
Q 63.578125 2.734375 56.6875 0.65625 
Q 49.8125 -1.421875 42 -1.421875 
Q 24.90625 -1.421875 15.25 8.5625 
Q 5.609375 18.5625 5.609375 36.375 
Q 5.609375 54.25 15.25 64.234375 
Q 24.90625 74.21875 42 74.21875 
Q 49.125 74.21875 55.546875 72.453125 
Q 61.96875 70.703125 67.390625 67.28125 
L 67.390625 56.78125 
Q 61.921875 61.421875 55.765625 63.765625 
Q 49.609375 66.109375 42.828125 66.109375 
Q 29.4375 66.109375 22.71875 58.640625 
Q 16.015625 51.171875 16.015625 36.375 
Q 16.015625 21.625 22.71875 14.15625 
Q 29.4375 6.6875 42.828125 6.6875 
Q 48.046875 6.6875 52.140625 7.59375 
Q 56.25 8.5 59.515625 10.40625 
z
" id="DejaVuSans-71"/>
      <path d="M 56.203125 29.59375 
L 56.203125 25.203125 
L 14.890625 25.203125 
Q 15.484375 15.921875 20.484375 11.0625 
Q 25.484375 6.203125 34.421875 6.203125 
Q 39.59375 6.203125 44.453125 7.46875 
Q 49.3125 8.734375 54.109375 11.28125 
L 54.109375 2.78125 
Q 49.265625 0.734375 44.1875 -0.34375 
Q 39.109375 -1.421875 33.890625 -1.421875 
Q 20.796875 -1.421875 13.15625 6.1875 
Q 5.515625 13.8125 5.515625 26.8125 
Q 5.515625 40.234375 12.765625 48.109375 
Q 20.015625 56 32.328125 56 
Q 43.359375 56 49.78125 48.890625 
Q 56.203125 41.796875 56.203125 29.59375 
z
M 47.21875 32.234375 
Q 47.125 39.59375 43.09375 43.984375 
Q 39.0625 48.390625 32.421875 48.390625 
Q 24.90625 48.390625 20.390625 44.140625 
Q 15.875 39.890625 15.1875 32.171875 
z
" id="DejaVuSans-101"/>
      <path d="M 41.109375 46.296875 
Q 39.59375 47.171875 37.8125 47.578125 
Q 36.03125 48 33.890625 48 
Q 26.265625 48 22.1875 43.046875 
Q 18.109375 38.09375 18.109375 28.8125 
L 18.109375 0 
L 9.078125 0 
L 9.078125 54.6875 
L 18.109375 54.6875 
L 18.109375 46.1875 
Q 20.953125 51.171875 25.484375 53.578125 
Q 30.03125 56 36.53125 56 
Q 37.453125 56 38.578125 55.875 
Q 39.703125 55.765625 41.0625 55.515625 
z
" id="DejaVuSans-114"/>
      <path d="M 34.28125 27.484375 
Q 23.390625 27.484375 19.1875 25 
Q 14.984375 22.515625 14.984375 16.5 
Q 14.984375 11.71875 18.140625 8.90625 
Q 21.296875 6.109375 26.703125 6.109375 
Q 34.1875 6.109375 38.703125 11.40625 
Q 43.21875 16.703125 43.21875 25.484375 
L 43.21875 27.484375 
z
M 52.203125 31.203125 
L 52.203125 0 
L 43.21875 0 
L 43.21875 8.296875 
Q 40.140625 3.328125 35.546875 0.953125 
Q 30.953125 -1.421875 24.3125 -1.421875 
Q 15.921875 -1.421875 10.953125 3.296875 
Q 6 8.015625 6 15.921875 
Q 6 25.140625 12.171875 29.828125 
Q 18.359375 34.515625 30.609375 34.515625 
L 43.21875 34.515625 
L 43.21875 35.40625 
Q 43.21875 41.609375 39.140625 45 
Q 35.0625 48.390625 27.6875 48.390625 
Q 23 48.390625 18.546875 47.265625 
Q 14.109375 46.140625 10.015625 43.890625 
L 10.015625 52.203125 
Q 14.9375 54.109375 19.578125 55.046875 
Q 24.21875 56 28.609375 56 
Q 40.484375 56 46.34375 49.84375 
Q 52.203125 43.703125 52.203125 31.203125 
z
" id="DejaVuSans-97"/>
      <path d="M 45.40625 46.390625 
L 45.40625 75.984375 
L 54.390625 75.984375 
L 54.390625 0 
L 45.40625 0 
L 45.40625 8.203125 
Q 42.578125 3.328125 38.25 0.953125 
Q 33.9375 -1.421875 27.875 -1.421875 
Q 17.96875 -1.421875 11.734375 6.484375 
Q 5.515625 14.40625 5.515625 27.296875 
Q 5.515625 40.1875 11.734375 48.09375 
Q 17.96875 56 27.875 56 
Q 33.9375 56 38.25 53.625 
Q 42.578125 51.265625 45.40625 46.390625 
z
M 14.796875 27.296875 
Q 14.796875 17.390625 18.875 11.75 
Q 22.953125 6.109375 30.078125 6.109375 
Q 37.203125 6.109375 41.296875 11.75 
Q 45.40625 17.390625 45.40625 27.296875 
Q 45.40625 37.203125 41.296875 42.84375 
Q 37.203125 48.484375 30.078125 48.484375 
Q 22.953125 48.484375 18.875 42.84375 
Q 14.796875 37.203125 14.796875 27.296875 
z
" id="DejaVuSans-100"/>
      <path id="DejaVuSans-32"/>
      <path d="M 37.203125 26.21875 
Q 37.203125 19.234375 40.671875 15.25 
Q 44.140625 11.28125 50.203125 11.28125 
Q 56.203125 11.28125 59.640625 15.28125 
Q 63.09375 19.28125 63.09375 26.21875 
Q 63.09375 33.0625 59.578125 37.078125 
Q 56.0625 41.109375 50.09375 41.109375 
Q 44.1875 41.109375 40.6875 37.109375 
Q 37.203125 33.109375 37.203125 26.21875 
z
M 63.8125 11.625 
Q 60.890625 7.859375 57.109375 6.078125 
Q 53.328125 4.296875 48.296875 4.296875 
Q 39.890625 4.296875 34.640625 10.375 
Q 29.390625 16.453125 29.390625 26.21875 
Q 29.390625 35.984375 34.65625 42.078125 
Q 39.9375 48.1875 48.296875 48.1875 
Q 53.328125 48.1875 57.125 46.359375 
Q 60.9375 44.53125 63.8125 40.828125 
L 63.8125 47.21875 
L 70.796875 47.21875 
L 70.796875 11.28125 
Q 77.9375 12.359375 81.953125 17.796875 
Q 85.984375 23.25 85.984375 31.890625 
Q 85.984375 37.109375 84.4375 41.703125 
Q 82.90625 46.296875 79.78125 50.203125 
Q 74.703125 56.59375 67.40625 59.984375 
Q 60.109375 63.375 51.515625 63.375 
Q 45.515625 63.375 39.984375 61.78125 
Q 34.46875 60.203125 29.78125 57.078125 
Q 22.125 52.09375 17.796875 44.015625 
Q 13.484375 35.9375 13.484375 26.515625 
Q 13.484375 18.75 16.28125 11.953125 
Q 19.09375 5.171875 24.421875 0 
Q 29.546875 -5.078125 36.28125 -7.734375 
Q 43.015625 -10.40625 50.6875 -10.40625 
Q 56.984375 -10.40625 63.0625 -8.28125 
Q 69.140625 -6.15625 74.21875 -2.203125 
L 78.609375 -7.625 
Q 72.515625 -12.359375 65.3125 -14.875 
Q 58.109375 -17.390625 50.6875 -17.390625 
Q 41.65625 -17.390625 33.640625 -14.1875 
Q 25.640625 -10.984375 19.390625 -4.890625 
Q 13.140625 1.21875 9.859375 9.25 
Q 6.59375 17.28125 6.59375 26.515625 
Q 6.59375 35.40625 9.90625 43.453125 
Q 13.234375 51.515625 19.390625 57.625 
Q 25.6875 63.8125 33.9375 67.109375 
Q 42.1875 70.40625 51.421875 70.40625 
Q 61.765625 70.40625 70.625 66.15625 
Q 79.5 61.921875 85.5 54.109375 
Q 89.15625 49.3125 91.078125 43.703125 
Q 93.015625 38.09375 93.015625 32.078125 
Q 93.015625 19.234375 85.25 11.8125 
Q 77.484375 4.390625 63.8125 4.109375 
z
" id="DejaVuSans-64"/>
      <path d="M 10.796875 72.90625 
L 49.515625 72.90625 
L 49.515625 64.59375 
L 19.828125 64.59375 
L 19.828125 46.734375 
Q 21.96875 47.46875 24.109375 47.828125 
Q 26.265625 48.1875 28.421875 48.1875 
Q 40.625 48.1875 47.75 41.5 
Q 54.890625 34.8125 54.890625 23.390625 
Q 54.890625 11.625 47.5625 5.09375 
Q 40.234375 -1.421875 26.90625 -1.421875 
Q 22.3125 -1.421875 17.546875 -0.640625 
Q 12.796875 0.140625 7.71875 1.703125 
L 7.71875 11.625 
Q 12.109375 9.234375 16.796875 8.0625 
Q 21.484375 6.890625 26.703125 6.890625 
Q 35.15625 6.890625 40.078125 11.328125 
Q 45.015625 15.765625 45.015625 23.390625 
Q 45.015625 31 40.078125 35.4375 
Q 35.15625 39.890625 26.703125 39.890625 
Q 22.75 39.890625 18.8125 39.015625 
Q 14.890625 38.140625 10.796875 36.28125 
z
" id="DejaVuSans-53"/>
      <path d="M 37.796875 64.3125 
L 12.890625 25.390625 
L 37.796875 25.390625 
z
M 35.203125 72.90625 
L 47.609375 72.90625 
L 47.609375 25.390625 
L 58.015625 25.390625 
L 58.015625 17.1875 
L 47.609375 17.1875 
L 47.609375 0 
L 37.796875 0 
L 37.796875 17.1875 
L 4.890625 17.1875 
L 4.890625 26.703125 
z
" id="DejaVuSans-52"/>
      <path d="M 52 44.1875 
Q 55.375 50.25 60.0625 53.125 
Q 64.75 56 71.09375 56 
Q 79.640625 56 84.28125 50.015625 
Q 88.921875 44.046875 88.921875 33.015625 
L 88.921875 0 
L 79.890625 0 
L 79.890625 32.71875 
Q 79.890625 40.578125 77.09375 44.375 
Q 74.3125 48.1875 68.609375 48.1875 
Q 61.625 48.1875 57.5625 43.546875 
Q 53.515625 38.921875 53.515625 30.90625 
L 53.515625 0 
L 44.484375 0 
L 44.484375 32.71875 
Q 44.484375 40.625 41.703125 44.40625 
Q 38.921875 48.1875 33.109375 48.1875 
Q 26.21875 48.1875 22.15625 43.53125 
Q 18.109375 38.875 18.109375 30.90625 
L 18.109375 0 
L 9.078125 0 
L 9.078125 54.6875 
L 18.109375 54.6875 
L 18.109375 46.1875 
Q 21.1875 51.21875 25.484375 53.609375 
Q 29.78125 56 35.6875 56 
Q 41.65625 56 45.828125 52.96875 
Q 50 49.953125 52 44.1875 
z
" id="DejaVuSans-109"/>
      <path d="M 9.421875 54.6875 
L 18.40625 54.6875 
L 18.40625 0 
L 9.421875 0 
z
M 9.421875 75.984375 
L 18.40625 75.984375 
L 18.40625 64.59375 
L 9.421875 64.59375 
z
" id="DejaVuSans-105"/>
      <path d="M 54.890625 33.015625 
L 54.890625 0 
L 45.90625 0 
L 45.90625 32.71875 
Q 45.90625 40.484375 42.875 44.328125 
Q 39.84375 48.1875 33.796875 48.1875 
Q 26.515625 48.1875 22.3125 43.546875 
Q 18.109375 38.921875 18.109375 30.90625 
L 18.109375 0 
L 9.078125 0 
L 9.078125 54.6875 
L 18.109375 54.6875 
L 18.109375 46.1875 
Q 21.34375 51.125 25.703125 53.5625 
Q 30.078125 56 35.796875 56 
Q 45.21875 56 50.046875 50.171875 
Q 54.890625 44.34375 54.890625 33.015625 
z
" id="DejaVuSans-110"/>
     </defs>
     <use xlink:href="#DejaVuSans-71"/>
     <use x="77.490234" xlink:href="#DejaVuSans-101"/>
     <use x="139.013672" xlink:href="#DejaVuSans-114"/>
     <use x="178.376953" xlink:href="#DejaVuSans-114"/>
     <use x="219.490234" xlink:href="#DejaVuSans-97"/>
     <use x="280.769531" xlink:href="#DejaVuSans-114"/>
     <use x="320.132812" xlink:href="#DejaVuSans-100"/>
     <use x="383.609375" xlink:href="#DejaVuSans-32"/>
     <use x="415.396484" xlink:href="#DejaVuSans-64"/>
     <use x="515.396484" xlink:href="#DejaVuSans-32"/>
     <use x="547.183594" xlink:href="#DejaVuSans-53"/>
     <use x="610.806641" xlink:href="#DejaVuSans-52"/>
     <use x="674.429688" xlink:href="#DejaVuSans-109"/>
     <use x="771.841797" xlink:href="#DejaVuSans-105"/>
     <use x="799.625" xlink:href="#DejaVuSans-110"/>
    </g>
   </g>
   <g id="legend_1">
    <g id="patch_32">
     <path d="M 70 95.234375 
L 129.076562 95.234375 
Q 131.076562 95.234375 131.076562 93.234375 
L 131.076562 50.2 
Q 131.076562 48.2 129.076562 48.2 
L 70 48.2 
Q 68 48.2 68 50.2 
L 68 93.234375 
Q 68 95.234375 70 95.234375 
z
" style="fill:#ffffff;opacity:0.8;stroke:#cccccc;stroke-linejoin:miter;"/>
    </g>
    <g id="patch_33">
     <path d="M 72 59.798437 
L 92 59.798437 
L 92 52.798437 
L 72 52.798437 
z
" style="fill:#00ffff;stroke:#00ffff;stroke-linejoin:miter;"/>
    </g>
    <g id="text_2">
     <!-- Shot -->
     <g transform="translate(100 59.798437)scale(0.1 -0.1)">
      <defs>
       <path d="M 53.515625 70.515625 
L 53.515625 60.890625 
Q 47.90625 63.578125 42.921875 64.890625 
Q 37.9375 66.21875 33.296875 66.21875 
Q 25.25 66.21875 20.875 63.09375 
Q 16.5 59.96875 16.5 54.203125 
Q 16.5 49.359375 19.40625 46.890625 
Q 22.3125 44.4375 30.421875 42.921875 
L 36.375 41.703125 
Q 47.40625 39.59375 52.65625 34.296875 
Q 57.90625 29 57.90625 20.125 
Q 57.90625 9.515625 50.796875 4.046875 
Q 43.703125 -1.421875 29.984375 -1.421875 
Q 24.8125 -1.421875 18.96875 -0.25 
Q 13.140625 0.921875 6.890625 3.21875 
L 6.890625 13.375 
Q 12.890625 10.015625 18.65625 8.296875 
Q 24.421875 6.59375 29.984375 6.59375 
Q 38.421875 6.59375 43.015625 9.90625 
Q 47.609375 13.234375 47.609375 19.390625 
Q 47.609375 24.75 44.3125 27.78125 
Q 41.015625 30.8125 33.5 32.328125 
L 27.484375 33.5 
Q 16.453125 35.6875 11.515625 40.375 
Q 6.59375 45.0625 6.59375 53.421875 
Q 6.59375 63.09375 13.40625 68.65625 
Q 20.21875 74.21875 32.171875 74.21875 
Q 37.3125 74.21875 42.625 73.28125 
Q 47.953125 72.359375 53.515625 70.515625 
z
" id="DejaVuSans-83"/>
       <path d="M 54.890625 33.015625 
L 54.890625 0 
L 45.90625 0 
L 45.90625 32.71875 
Q 45.90625 40.484375 42.875 44.328125 
Q 39.84375 48.1875 33.796875 48.1875 
Q 26.515625 48.1875 22.3125 43.546875 
Q 18.109375 38.921875 18.109375 30.90625 
L 18.109375 0 
L 9.078125 0 
L 9.078125 75.984375 
L 18.109375 75.984375 
L 18.109375 46.1875 
Q 21.34375 51.125 25.703125 53.5625 
Q 30.078125 56 35.796875 56 
Q 45.21875 56 50.046875 50.171875 
Q 54.890625 44.34375 54.890625 33.015625 
z
" id="DejaVuSans-104"/>
       <path d="M 30.609375 48.390625 
Q 23.390625 48.390625 19.1875 42.75 
Q 14.984375 37.109375 14.984375 27.296875 
Q 14.984375 17.484375 19.15625 11.84375 
Q 23.34375 6.203125 30.609375 6.203125 
Q 37.796875 6.203125 41.984375 11.859375 
Q 46.1875 17.53125 46.1875 27.296875 
Q 46.1875 37.015625 41.984375 42.703125 
Q 37.796875 48.390625 30.609375 48.390625 
z
M 30.609375 56 
Q 42.328125 56 49.015625 48.375 
Q 55.71875 40.765625 55.71875 27.296875 
Q 55.71875 13.875 49.015625 6.21875 
Q 42.328125 -1.421875 30.609375 -1.421875 
Q 18.84375 -1.421875 12.171875 6.21875 
Q 5.515625 13.875 5.515625 27.296875 
Q 5.515625 40.765625 12.171875 48.375 
Q 18.84375 56 30.609375 56 
z
" id="DejaVuSans-111"/>
       <path d="M 18.3125 70.21875 
L 18.3125 54.6875 
L 36.8125 54.6875 
L 36.8125 47.703125 
L 18.3125 47.703125 
L 18.3125 18.015625 
Q 18.3125 11.328125 20.140625 9.421875 
Q 21.96875 7.515625 27.59375 7.515625 
L 36.8125 7.515625 
L 36.8125 0 
L 27.59375 0 
Q 17.1875 0 13.234375 3.875 
Q 9.28125 7.765625 9.28125 18.015625 
L 9.28125 47.703125 
L 2.6875 47.703125 
L 2.6875 54.6875 
L 9.28125 54.6875 
L 9.28125 70.21875 
z
" id="DejaVuSans-116"/>
      </defs>
      <use xlink:href="#DejaVuSans-83"/>
      <use x="63.476562" xlink:href="#DejaVuSans-104"/>
      <use x="126.855469" xlink:href="#DejaVuSans-111"/>
      <use x="188.037109" xlink:href="#DejaVuSans-116"/>
     </g>
    </g>
    <g id="patch_34">
     <path d="M 72 74.476562 
L 92 74.476562 
L 92 67.476562 
L 72 67.476562 
z
" style="fill:#39ff14;stroke:#39ff14;stroke-linejoin:miter;"/>
    </g>
    <g id="text_3">
     <!-- Pass -->
     <g transform="translate(100 74.476562)scale(0.1 -0.1)">
      <defs>
       <path d="M 19.671875 64.796875 
L 19.671875 37.40625 
L 32.078125 37.40625 
Q 38.96875 37.40625 42.71875 40.96875 
Q 46.484375 44.53125 46.484375 51.125 
Q 46.484375 57.671875 42.71875 61.234375 
Q 38.96875 64.796875 32.078125 64.796875 
z
M 9.8125 72.90625 
L 32.078125 72.90625 
Q 44.34375 72.90625 50.609375 67.359375 
Q 56.890625 61.8125 56.890625 51.125 
Q 56.890625 40.328125 50.609375 34.8125 
Q 44.34375 29.296875 32.078125 29.296875 
L 19.671875 29.296875 
L 19.671875 0 
L 9.8125 0 
z
" id="DejaVuSans-80"/>
       <path d="M 44.28125 53.078125 
L 44.28125 44.578125 
Q 40.484375 46.53125 36.375 47.5 
Q 32.28125 48.484375 27.875 48.484375 
Q 21.1875 48.484375 17.84375 46.4375 
Q 14.5 44.390625 14.5 40.28125 
Q 14.5 37.15625 16.890625 35.375 
Q 19.28125 33.59375 26.515625 31.984375 
L 29.59375 31.296875 
Q 39.15625 29.25 43.1875 25.515625 
Q 47.21875 21.78125 47.21875 15.09375 
Q 47.21875 7.46875 41.1875 3.015625 
Q 35.15625 -1.421875 24.609375 -1.421875 
Q 20.21875 -1.421875 15.453125 -0.5625 
Q 10.6875 0.296875 5.421875 2 
L 5.421875 11.28125 
Q 10.40625 8.6875 15.234375 7.390625 
Q 20.0625 6.109375 24.8125 6.109375 
Q 31.15625 6.109375 34.5625 8.28125 
Q 37.984375 10.453125 37.984375 14.40625 
Q 37.984375 18.0625 35.515625 20.015625 
Q 33.0625 21.96875 24.703125 23.78125 
L 21.578125 24.515625 
Q 13.234375 26.265625 9.515625 29.90625 
Q 5.8125 33.546875 5.8125 39.890625 
Q 5.8125 47.609375 11.28125 51.796875 
Q 16.75 56 26.8125 56 
Q 31.78125 56 36.171875 55.265625 
Q 40.578125 54.546875 44.28125 53.078125 
z
" id="DejaVuSans-115"/>
      </defs>
      <use xlink:href="#DejaVuSans-80"/>
      <use x="55.802734" xlink:href="#DejaVuSans-97"/>
      <use x="117.082031" xlink:href="#DejaVuSans-115"/>
      <use x="169.181641" xlink:href="#DejaVuSans-115"/>
     </g>
    </g>
    <g id="patch_35">
     <path d="M 72 89.154687 
L 92 89.154687 
L 92 82.154687 
L 72 82.154687 
z
" style="fill:#ff00ff;stroke:#ff00ff;stroke-linejoin:miter;"/>
    </g>
    <g id="text_4">
     <!-- Carry -->
     <g transform="translate(100 89.154687)scale(0.1 -0.1)">
      <defs>
       <path d="M 64.40625 67.28125 
L 64.40625 56.890625 
Q 59.421875 61.53125 53.78125 63.8125 
Q 48.140625 66.109375 41.796875 66.109375 
Q 29.296875 66.109375 22.65625 58.46875 
Q 16.015625 50.828125 16.015625 36.375 
Q 16.015625 21.96875 22.65625 14.328125 
Q 29.296875 6.6875 41.796875 6.6875 
Q 48.140625 6.6875 53.78125 8.984375 
Q 59.421875 11.28125 64.40625 15.921875 
L 64.40625 5.609375 
Q 59.234375 2.09375 53.4375 0.328125 
Q 47.65625 -1.421875 41.21875 -1.421875 
Q 24.65625 -1.421875 15.125 8.703125 
Q 5.609375 18.84375 5.609375 36.375 
Q 5.609375 53.953125 15.125 64.078125 
Q 24.65625 74.21875 41.21875 74.21875 
Q 47.75 74.21875 53.53125 72.484375 
Q 59.328125 70.75 64.40625 67.28125 
z
" id="DejaVuSans-67"/>
       <path d="M 32.171875 -5.078125 
Q 28.375 -14.84375 24.75 -17.8125 
Q 21.140625 -20.796875 15.09375 -20.796875 
L 7.90625 -20.796875 
L 7.90625 -13.28125 
L 13.1875 -13.28125 
Q 16.890625 -13.28125 18.9375 -11.515625 
Q 21 -9.765625 23.484375 -3.21875 
L 25.09375 0.875 
L 2.984375 54.6875 
L 12.5 54.6875 
L 29.59375 11.921875 
L 46.6875 54.6875 
L 56.203125 54.6875 
z
" id="DejaVuSans-121"/>
      </defs>
      <use xlink:href="#DejaVuSans-67"/>
      <use x="69.824219" xlink:href="#DejaVuSans-97"/>
      <use x="131.103516" xlink:href="#DejaVuSans-114"/>
      <use x="170.466797" xlink:href="#DejaVuSans-114"/>
      <use x="211.580078" xlink:href="#DejaVuSans-121"/>
     </g>
    </g>
   </g>
  </g>
 </g>
 <defs>
  <clipPath id="p809384ce4c">
   <rect height="271.8" width="390.6" x="63" y="43.2"/>
  </clipPath>
 </defs>
</svg>
