<?xml version="1.0" encoding="utf-8" standalone="no"?>
<!DOCTYPE svg PUBLIC "-//W3C//DTD SVG 1.1//EN"
  "http://www.w3.org/Graphics/SVG/1.1/DTD/svg11.dtd">
<!-- Created with matplotlib (https://matplotlib.org/) -->
<svg height="360pt" version="1.1" viewBox="0 0 504 360" width="504pt" xmlns="http://www.w3.org/2000/svg" xmlns:xlink="http://www.w3.org/1999/xlink">
 <metadata>
  <rdf:RDF xmlns:cc="http://creativecommons.org/ns#" xmlns:dc="http://purl.org/dc/elements/1.1/" xmlns:rdf="http://www.w3.org/1999/02/22-rdf-syntax-ns#">
   <cc:Work>
    <dc:type rdf:resource="http://purl.org/dc/dcmitype/StillImage"/>
    <dc:date>2022-03-21T11:13:07.424558</dc:date>
    <dc:format>image/svg+xml</dc:format>
    <dc:creator>
     <cc:Agent>
      <dc:title>Matplotlib v3.3.4, https://matplotlib.org/</dc:title>
     </cc:Agent>
    </dc:creator>
   </cc:Work>
  </rdf:RDF>
 </metadata>
 <defs>
  <style type="text/css">*{stroke-linecap:butt;stroke-linejoin:round;}</style>
 </defs>
 <g id="figure_1">
  <g id="patch_1">
   <path d="M 0 360 
L 504 360 
L 504 0 
L 0 0 
z
" style="fill:none;"/>
  </g>
  <g id="axes_1">
   <g id="patch_2">
    <path clip-path="url(#pdcacde110d)" d="M 69.3 308.528571 
L 447.3 308.528571 
L 447.3 49.671429 
L 69.3 49.671429 
z
" style="fill:none;stroke:#000000;stroke-linejoin:miter;"/>
   </g>
   <g id="patch_3">
    <path clip-path="url(#pdcacde110d)" d="M 69.3 236.372143 
L 115.29 236.372143 
L 115.29 122.151429 
L 69.3 122.151429 
z
" style="fill:none;stroke:#000000;stroke-linejoin:miter;"/>
   </g>
   <g id="patch_4">
    <path clip-path="url(#pdcacde110d)" d="M 401.31 236.372143 
L 447.3 236.372143 
L 447.3 122.151429 
L 401.31 122.151429 
z
" style="fill:none;stroke:#000000;stroke-linejoin:miter;"/>
   </g>
   <g id="patch_5">
    <path d="M 258.3 308.528571 
Q 258.3 179.1 258.3 49.671429 
" style="fill:none;stroke:#000000;stroke-linecap:round;"/>
   </g>
   <g id="patch_6">
    <path clip-path="url(#pdcacde110d)" d="M 69.3 204.985714 
L 84.735 204.985714 
L 84.735 153.214286 
L 69.3 153.214286 
z
" style="fill:none;stroke:#000000;stroke-linejoin:miter;"/>
   </g>
   <g id="patch_7">
    <path clip-path="url(#pdcacde110d)" d="M 431.865 204.985714 
L 447.3 204.985714 
L 447.3 153.214286 
L 431.865 153.214286 
z
" style="fill:none;stroke:#000000;stroke-linejoin:miter;"/>
   </g>
   <g id="patch_8">
    <path clip-path="url(#pdcacde110d)" d="M 258.3 205.309286 
C 265.066657 205.309286 271.55708 202.54771 276.34183 197.632764 
C 281.126579 192.717817 283.815 186.050784 283.815 179.1 
C 283.815 172.149216 281.126579 165.482183 276.34183 160.567236 
C 271.55708 155.65229 265.066657 152.890714 258.3 152.890714 
C 251.533343 152.890714 245.04292 155.65229 240.25817 160.567236 
C 235.473421 165.482183 232.785 172.149216 232.785 179.1 
C 232.785 186.050784 235.473421 192.717817 240.25817 197.632764 
C 245.04292 202.54771 251.533343 205.309286 258.3 205.309286 
z
" style="fill:none;stroke:#000000;stroke-linejoin:miter;"/>
   </g>
   <g id="patch_9">
    <path clip-path="url(#pdcacde110d)" d="M 258.3 181.397357 
C 258.893127 181.397357 259.46204 181.155293 259.881444 180.724477 
C 260.300848 180.293661 260.5365 179.709266 260.5365 179.1 
C 260.5365 178.490734 260.300848 177.906339 259.881444 177.475523 
C 259.46204 177.044707 258.893127 176.802643 258.3 176.802643 
C 257.706873 176.802643 257.13796 177.044707 256.718556 177.475523 
C 256.299152 177.906339 256.0635 178.490734 256.0635 179.1 
C 256.0635 179.709266 256.299152 180.293661 256.718556 180.724477 
C 257.13796 181.155293 257.706873 181.397357 258.3 181.397357 
z
" style="stroke:#000000;stroke-linejoin:miter;"/>
   </g>
   <g id="patch_10">
    <path clip-path="url(#pdcacde110d)" d="M 416.745 181.397357 
C 417.338127 181.397357 417.90704 181.155293 418.326444 180.724477 
C 418.745848 180.293661 418.9815 179.709266 418.9815 179.1 
C 418.9815 178.490734 418.745848 177.906339 418.326444 177.475523 
C 417.90704 177.044707 417.338127 176.802643 416.745 176.802643 
C 416.151873 176.802643 415.58296 177.044707 415.163556 177.475523 
C 414.744152 177.906339 414.5085 178.490734 414.5085 179.1 
C 414.5085 179.709266 414.744152 180.293661 415.163556 180.724477 
C 415.58296 181.155293 416.151873 181.397357 416.745 181.397357 
z
" style="stroke:#000000;stroke-linejoin:miter;"/>
   </g>
   <g id="patch_11">
    <path clip-path="url(#pdcacde110d)" d="M 99.855 181.397357 
C 100.448127 181.397357 101.01704 181.155293 101.436444 180.724477 
C 101.855848 180.293661 102.0915 179.709266 102.0915 179.1 
C 102.0915 178.490734 101.855848 177.906339 101.436444 177.475523 
C 101.01704 177.044707 100.448127 176.802643 99.855 176.802643 
C 99.261873 176.802643 98.69296 177.044707 98.273556 177.475523 
C 97.854152 177.906339 97.6185 178.490734 97.6185 179.1 
C 97.6185 179.709266 97.854152 180.293661 98.273556 180.724477 
C 98.69296 181.155293 99.261873 181.397357 99.855 181.397357 
z
" style="stroke:#000000;stroke-linejoin:miter;"/>
   </g>
   <g id="patch_12">
    <path clip-path="url(#pdcacde110d)" d="M 116.255726 199.177478 
C 119.109749 196.717503 121.40491 193.645 122.979443 190.176523 
C 124.553976 186.708045 125.37 182.927041 125.37 179.1 
C 125.37 175.272959 124.553976 171.491955 122.979443 168.023477 
C 121.40491 164.555 119.109749 161.482497 116.255726 159.022522 
" style="fill:none;stroke:#000000;stroke-linejoin:miter;"/>
   </g>
   <g id="patch_13">
    <path clip-path="url(#pdcacde110d)" d="M 400.344274 159.022522 
C 397.490251 161.482497 395.19509 164.555 393.620557 168.023477 
C 392.046024 171.491955 391.23 175.272959 391.23 179.1 
C 391.23 182.927041 392.046024 186.708045 393.620557 190.176523 
C 395.19509 193.645 397.490251 196.717503 400.344274 199.177478 
" style="fill:none;stroke:#000000;stroke-linejoin:miter;"/>
   </g>
   <g id="patch_14">
    <path d="M 393.021053 94.372592 
Q 397.372605 134.448112 401.603467 173.412132 
" style="fill:none;stroke:#000000;stroke-linecap:round;"/>
    <path d="M 403.159982 169.219608 
L 401.603467 173.412132 
L 399.183357 169.651405 
" style="fill:none;stroke:#000000;stroke-linecap:round;"/>
   </g>
   <g id="patch_15">
    <path d="M 446.538335 51.52245 
Q 415.011903 128.138951 383.910913 203.721528 
" style="fill:none;stroke:#ff0000;stroke-linecap:round;"/>
    <path d="M 387.282563 200.783505 
L 383.910913 203.721528 
L 383.583484 199.261395 
" style="fill:none;stroke:#ff0000;stroke-linecap:round;"/>
   </g>
   <g id="patch_16">
    <path d="M 355.799181 53.120869 
Q 379.41663 107.588708 402.589307 161.03079 
" style="fill:none;stroke:#ff0000;stroke-linecap:round;"/>
    <path d="M 402.832973 156.565297 
L 402.589307 161.03079 
L 399.163112 158.156562 
" style="fill:none;stroke:#ff0000;stroke-linecap:round;"/>
   </g>
   <g id="patch_17">
    <path d="M 342.791136 195.946214 
Q 335.160123 169.71685 327.841433 144.56101 
" style="fill:none;stroke:#000000;stroke-linecap:round;"/>
    <path d="M 327.038462 148.960469 
L 327.841433 144.56101 
L 330.879217 147.843062 
" style="fill:none;stroke:#000000;stroke-linecap:round;"/>
   </g>
   <g id="patch_18">
    <path d="M 447.131339 51.666792 
Q 442.732311 103.710091 438.427451 154.639329 
" style="fill:none;stroke:#000000;stroke-linecap:round;"/>
    <path d="M 440.757248 150.821994 
L 438.427451 154.639329 
L 436.771461 150.48509 
" style="fill:none;stroke:#000000;stroke-linecap:round;"/>
   </g>
   <g id="patch_19">
    <path d="M 406.394143 101.807369 
Q 402.885042 127.490052 399.527294 152.064993 
" style="fill:none;stroke:#000000;stroke-linecap:round;"/>
    <path d="M 402.050384 148.372565 
L 399.527294 152.064993 
L 398.087206 147.831065 
" style="fill:none;stroke:#000000;stroke-linecap:round;"/>
   </g>
   <g id="patch_20">
    <path d="M 342.098421 147.856852 
Q 359.099855 179.261518 375.569017 209.682983 
" style="fill:none;stroke:#ff0000;stroke-linecap:round;"/>
    <path d="M 375.423506 205.213215 
L 375.569017 209.682983 
L 371.905896 207.117531 
" style="fill:none;stroke:#ff0000;stroke-linecap:round;"/>
   </g>
   <g id="patch_21">
    <path d="M 411.103339 204.046994 
Q 401.152849 195.925999 392.068536 188.511927 
" style="fill:none;stroke:#ff0000;stroke-linecap:round;"/>
    <path d="M 393.902884 192.59055 
L 392.068536 188.511927 
L 396.432043 189.491622 
" style="fill:none;stroke:#ff0000;stroke-linecap:round;"/>
   </g>
   <g id="patch_22">
    <path d="M 414.205466 136.997914 
Q 422.415169 162.598385 430.28346 187.134225 
" style="fill:none;stroke:#000000;stroke-linecap:round;"/>
    <path d="M 430.966458 182.714551 
L 430.28346 187.134225 
L 427.15752 183.936023 
" style="fill:none;stroke:#000000;stroke-linecap:round;"/>
   </g>
   <g id="patch_23">
    <path d="M 253.51239 133.968994 
Q 320.512194 163.892006 386.491149 193.359093 
" style="fill:none;stroke:#000000;stroke-linecap:round;"/>
    <path d="M 383.654432 189.901777 
L 386.491149 193.359093 
L 382.023266 193.554077 
" style="fill:none;stroke:#000000;stroke-linecap:round;"/>
   </g>
   <g id="text_1">
    <!-- Key Passes: First Half -->
    <g transform="translate(194.991563 37.2)scale(0.12 -0.12)">
     <defs>
      <path d="M 9.8125 72.90625 
L 19.671875 72.90625 
L 19.671875 42.09375 
L 52.390625 72.90625 
L 65.09375 72.90625 
L 28.90625 38.921875 
L 67.671875 0 
L 54.6875 0 
L 19.671875 35.109375 
L 19.671875 0 
L 9.8125 0 
z
" id="DejaVuSans-75"/>
      <path d="M 56.203125 29.59375 
L 56.203125 25.203125 
L 14.890625 25.203125 
Q 15.484375 15.921875 20.484375 11.0625 
Q 25.484375 6.203125 34.421875 6.203125 
Q 39.59375 6.203125 44.453125 7.46875 
Q 49.3125 8.734375 54.109375 11.28125 
L 54.109375 2.78125 
Q 49.265625 0.734375 44.1875 -0.34375 
Q 39.109375 -1.421875 33.890625 -1.421875 
Q 20.796875 -1.421875 13.15625 6.1875 
Q 5.515625 13.8125 5.515625 26.8125 
Q 5.515625 40.234375 12.765625 48.109375 
Q 20.015625 56 32.328125 56 
Q 43.359375 56 49.78125 48.890625 
Q 56.203125 41.796875 56.203125 29.59375 
z
M 47.21875 32.234375 
Q 47.125 39.59375 43.09375 43.984375 
Q 39.0625 48.390625 32.421875 48.390625 
Q 24.90625 48.390625 20.390625 44.140625 
Q 15.875 39.890625 15.1875 32.171875 
z
" id="DejaVuSans-101"/>
      <path d="M 32.171875 -5.078125 
Q 28.375 -14.84375 24.75 -17.8125 
Q 21.140625 -20.796875 15.09375 -20.796875 
L 7.90625 -20.796875 
L 7.90625 -13.28125 
L 13.1875 -13.28125 
Q 16.890625 -13.28125 18.9375 -11.515625 
Q 21 -9.765625 23.484375 -3.21875 
L 25.09375 0.875 
L 2.984375 54.6875 
L 12.5 54.6875 
L 29.59375 11.921875 
L 46.6875 54.6875 
L 56.203125 54.6875 
z
" id="DejaVuSans-121"/>
      <path id="DejaVuSans-32"/>
      <path d="M 19.671875 64.796875 
L 19.671875 37.40625 
L 32.078125 37.40625 
Q 38.96875 37.40625 42.71875 40.96875 
Q 46.484375 44.53125 46.484375 51.125 
Q 46.484375 57.671875 42.71875 61.234375 
Q 38.96875 64.796875 32.078125 64.796875 
z
M 9.8125 72.90625 
L 32.078125 72.90625 
Q 44.34375 72.90625 50.609375 67.359375 
Q 56.890625 61.8125 56.890625 51.125 
Q 56.890625 40.328125 50.609375 34.8125 
Q 44.34375 29.296875 32.078125 29.296875 
L 19.671875 29.296875 
L 19.671875 0 
L 9.8125 0 
z
" id="DejaVuSans-80"/>
      <path d="M 34.28125 27.484375 
Q 23.390625 27.484375 19.1875 25 
Q 14.984375 22.515625 14.984375 16.5 
Q 14.984375 11.71875 18.140625 8.90625 
Q 21.296875 6.109375 26.703125 6.109375 
Q 34.1875 6.109375 38.703125 11.40625 
Q 43.21875 16.703125 43.21875 25.484375 
L 43.21875 27.484375 
z
M 52.203125 31.203125 
L 52.203125 0 
L 43.21875 0 
L 43.21875 8.296875 
Q 40.140625 3.328125 35.546875 0.953125 
Q 30.953125 -1.421875 24.3125 -1.421875 
Q 15.921875 -1.421875 10.953125 3.296875 
Q 6 8.015625 6 15.921875 
Q 6 25.140625 12.171875 29.828125 
Q 18.359375 34.515625 30.609375 34.515625 
L 43.21875 34.515625 
L 43.21875 35.40625 
Q 43.21875 41.609375 39.140625 45 
Q 35.0625 48.390625 27.6875 48.390625 
Q 23 48.390625 18.546875 47.265625 
Q 14.109375 46.140625 10.015625 43.890625 
L 10.015625 52.203125 
Q 14.9375 54.109375 19.578125 55.046875 
Q 24.21875 56 28.609375 56 
Q 40.484375 56 46.34375 49.84375 
Q 52.203125 43.703125 52.203125 31.203125 
z
" id="DejaVuSans-97"/>
      <path d="M 44.28125 53.078125 
L 44.28125 44.578125 
Q 40.484375 46.53125 36.375 47.5 
Q 32.28125 48.484375 27.875 48.484375 
Q 21.1875 48.484375 17.84375 46.4375 
Q 14.5 44.390625 14.5 40.28125 
Q 14.5 37.15625 16.890625 35.375 
Q 19.28125 33.59375 26.515625 31.984375 
L 29.59375 31.296875 
Q 39.15625 29.25 43.1875 25.515625 
Q 47.21875 21.78125 47.21875 15.09375 
Q 47.21875 7.46875 41.1875 3.015625 
Q 35.15625 -1.421875 24.609375 -1.421875 
Q 20.21875 -1.421875 15.453125 -0.5625 
Q 10.6875 0.296875 5.421875 2 
L 5.421875 11.28125 
Q 10.40625 8.6875 15.234375 7.390625 
Q 20.0625 6.109375 24.8125 6.109375 
Q 31.15625 6.109375 34.5625 8.28125 
Q 37.984375 10.453125 37.984375 14.40625 
Q 37.984375 18.0625 35.515625 20.015625 
Q 33.0625 21.96875 24.703125 23.78125 
L 21.578125 24.515625 
Q 13.234375 26.265625 9.515625 29.90625 
Q 5.8125 33.546875 5.8125 39.890625 
Q 5.8125 47.609375 11.28125 51.796875 
Q 16.75 56 26.8125 56 
Q 31.78125 56 36.171875 55.265625 
Q 40.578125 54.546875 44.28125 53.078125 
z
" id="DejaVuSans-115"/>
      <path d="M 11.71875 12.40625 
L 22.015625 12.40625 
L 22.015625 0 
L 11.71875 0 
z
M 11.71875 51.703125 
L 22.015625 51.703125 
L 22.015625 39.3125 
L 11.71875 39.3125 
z
" id="DejaVuSans-58"/>
      <path d="M 9.8125 72.90625 
L 51.703125 72.90625 
L 51.703125 64.59375 
L 19.671875 64.59375 
L 19.671875 43.109375 
L 48.578125 43.109375 
L 48.578125 34.8125 
L 19.671875 34.8125 
L 19.671875 0 
L 9.8125 0 
z
" id="DejaVuSans-70"/>
      <path d="M 9.421875 54.6875 
L 18.40625 54.6875 
L 18.40625 0 
L 9.421875 0 
z
M 9.421875 75.984375 
L 18.40625 75.984375 
L 18.40625 64.59375 
L 9.421875 64.59375 
z
" id="DejaVuSans-105"/>
      <path d="M 41.109375 46.296875 
Q 39.59375 47.171875 37.8125 47.578125 
Q 36.03125 48 33.890625 48 
Q 26.265625 48 22.1875 43.046875 
Q 18.109375 38.09375 18.109375 28.8125 
L 18.109375 0 
L 9.078125 0 
L 9.078125 54.6875 
L 18.109375 54.6875 
L 18.109375 46.1875 
Q 20.953125 51.171875 25.484375 53.578125 
Q 30.03125 56 36.53125 56 
Q 37.453125 56 38.578125 55.875 
Q 39.703125 55.765625 41.0625 55.515625 
z
" id="DejaVuSans-114"/>
      <path d="M 18.3125 70.21875 
L 18.3125 54.6875 
L 36.8125 54.6875 
L 36.8125 47.703125 
L 18.3125 47.703125 
L 18.3125 18.015625 
Q 18.3125 11.328125 20.140625 9.421875 
Q 21.96875 7.515625 27.59375 7.515625 
L 36.8125 7.515625 
L 36.8125 0 
L 27.59375 0 
Q 17.1875 0 13.234375 3.875 
Q 9.28125 7.765625 9.28125 18.015625 
L 9.28125 47.703125 
L 2.6875 47.703125 
L 2.6875 54.6875 
L 9.28125 54.6875 
L 9.28125 70.21875 
z
" id="DejaVuSans-116"/>
      <path d="M 9.8125 72.90625 
L 19.671875 72.90625 
L 19.671875 43.015625 
L 55.515625 43.015625 
L 55.515625 72.90625 
L 65.375 72.90625 
L 65.375 0 
L 55.515625 0 
L 55.515625 34.71875 
L 19.671875 34.71875 
L 19.671875 0 
L 9.8125 0 
z
" id="DejaVuSans-72"/>
      <path d="M 9.421875 75.984375 
L 18.40625 75.984375 
L 18.40625 0 
L 9.421875 0 
z
" id="DejaVuSans-108"/>
      <path d="M 37.109375 75.984375 
L 37.109375 68.5 
L 28.515625 68.5 
Q 23.6875 68.5 21.796875 66.546875 
Q 19.921875 64.59375 19.921875 59.515625 
L 19.921875 54.6875 
L 34.71875 54.6875 
L 34.71875 47.703125 
L 19.921875 47.703125 
L 19.921875 0 
L 10.890625 0 
L 10.890625 47.703125 
L 2.296875 47.703125 
L 2.296875 54.6875 
L 10.890625 54.6875 
L 10.890625 58.5 
Q 10.890625 67.625 15.140625 71.796875 
Q 19.390625 75.984375 28.609375 75.984375 
z
" id="DejaVuSans-102"/>
     </defs>
     <use xlink:href="#DejaVuSans-75"/>
     <use x="60.576172" xlink:href="#DejaVuSans-101"/>
     <use x="122.099609" xlink:href="#DejaVuSans-121"/>
     <use x="181.279297" xlink:href="#DejaVuSans-32"/>
     <use x="213.066406" xlink:href="#DejaVuSans-80"/>
     <use x="268.869141" xlink:href="#DejaVuSans-97"/>
     <use x="330.148438" xlink:href="#DejaVuSans-115"/>
     <use x="382.248047" xlink:href="#DejaVuSans-115"/>
     <use x="434.347656" xlink:href="#DejaVuSans-101"/>
     <use x="495.871094" xlink:href="#DejaVuSans-115"/>
     <use x="547.970703" xlink:href="#DejaVuSans-58"/>
     <use x="581.662109" xlink:href="#DejaVuSans-32"/>
     <use x="613.449219" xlink:href="#DejaVuSans-70"/>
     <use x="663.71875" xlink:href="#DejaVuSans-105"/>
     <use x="691.501953" xlink:href="#DejaVuSans-114"/>
     <use x="732.615234" xlink:href="#DejaVuSans-115"/>
     <use x="784.714844" xlink:href="#DejaVuSans-116"/>
     <use x="823.923828" xlink:href="#DejaVuSans-32"/>
     <use x="855.710938" xlink:href="#DejaVuSans-72"/>
     <use x="930.90625" xlink:href="#DejaVuSans-97"/>
     <use x="992.185547" xlink:href="#DejaVuSans-108"/>
     <use x="1019.96875" xlink:href="#DejaVuSans-102"/>
    </g>
   </g>
   <g id="legend_1">
    <g id="patch_24">
     <path d="M 70 80.55625 
L 147.896875 80.55625 
Q 149.896875 80.55625 149.896875 78.55625 
L 149.896875 50.2 
Q 149.896875 48.2 147.896875 48.2 
L 70 48.2 
Q 68 48.2 68 50.2 
L 68 78.55625 
Q 68 80.55625 70 80.55625 
z
" style="fill:#ffffff;opacity:0.8;stroke:#cccccc;stroke-linejoin:miter;"/>
    </g>
    <g id="patch_25">
     <path d="M 72 59.798437 
L 92 59.798437 
L 92 52.798437 
L 72 52.798437 
z
" style="stroke:#000000;stroke-linejoin:miter;"/>
    </g>
    <g id="text_2">
     <!-- AC Milan -->
     <g transform="translate(100 59.798437)scale(0.1 -0.1)">
      <defs>
       <path d="M 34.1875 63.1875 
L 20.796875 26.90625 
L 47.609375 26.90625 
z
M 28.609375 72.90625 
L 39.796875 72.90625 
L 67.578125 0 
L 57.328125 0 
L 50.6875 18.703125 
L 17.828125 18.703125 
L 11.1875 0 
L 0.78125 0 
z
" id="DejaVuSans-65"/>
       <path d="M 64.40625 67.28125 
L 64.40625 56.890625 
Q 59.421875 61.53125 53.78125 63.8125 
Q 48.140625 66.109375 41.796875 66.109375 
Q 29.296875 66.109375 22.65625 58.46875 
Q 16.015625 50.828125 16.015625 36.375 
Q 16.015625 21.96875 22.65625 14.328125 
Q 29.296875 6.6875 41.796875 6.6875 
Q 48.140625 6.6875 53.78125 8.984375 
Q 59.421875 11.28125 64.40625 15.921875 
L 64.40625 5.609375 
Q 59.234375 2.09375 53.4375 0.328125 
Q 47.65625 -1.421875 41.21875 -1.421875 
Q 24.65625 -1.421875 15.125 8.703125 
Q 5.609375 18.84375 5.609375 36.375 
Q 5.609375 53.953125 15.125 64.078125 
Q 24.65625 74.21875 41.21875 74.21875 
Q 47.75 74.21875 53.53125 72.484375 
Q 59.328125 70.75 64.40625 67.28125 
z
" id="DejaVuSans-67"/>
       <path d="M 9.8125 72.90625 
L 24.515625 72.90625 
L 43.109375 23.296875 
L 61.8125 72.90625 
L 76.515625 72.90625 
L 76.515625 0 
L 66.890625 0 
L 66.890625 64.015625 
L 48.09375 14.015625 
L 38.1875 14.015625 
L 19.390625 64.015625 
L 19.390625 0 
L 9.8125 0 
z
" id="DejaVuSans-77"/>
       <path d="M 54.890625 33.015625 
L 54.890625 0 
L 45.90625 0 
L 45.90625 32.71875 
Q 45.90625 40.484375 42.875 44.328125 
Q 39.84375 48.1875 33.796875 48.1875 
Q 26.515625 48.1875 22.3125 43.546875 
Q 18.109375 38.921875 18.109375 30.90625 
L 18.109375 0 
L 9.078125 0 
L 9.078125 54.6875 
L 18.109375 54.6875 
L 18.109375 46.1875 
Q 21.34375 51.125 25.703125 53.5625 
Q 30.078125 56 35.796875 56 
Q 45.21875 56 50.046875 50.171875 
Q 54.890625 44.34375 54.890625 33.015625 
z
" id="DejaVuSans-110"/>
      </defs>
      <use xlink:href="#DejaVuSans-65"/>
      <use x="66.658203" xlink:href="#DejaVuSans-67"/>
      <use x="136.482422" xlink:href="#DejaVuSans-32"/>
      <use x="168.269531" xlink:href="#DejaVuSans-77"/>
      <use x="254.548828" xlink:href="#DejaVuSans-105"/>
      <use x="282.332031" xlink:href="#DejaVuSans-108"/>
      <use x="310.115234" xlink:href="#DejaVuSans-97"/>
      <use x="371.394531" xlink:href="#DejaVuSans-110"/>
     </g>
    </g>
    <g id="patch_26">
     <path d="M 72 74.476562 
L 92 74.476562 
L 92 67.476562 
L 72 67.476562 
z
" style="fill:#ff0000;stroke:#ff0000;stroke-linejoin:miter;"/>
    </g>
    <g id="text_3">
     <!-- Liverpool -->
     <g transform="translate(100 74.476562)scale(0.1 -0.1)">
      <defs>
       <path d="M 9.8125 72.90625 
L 19.671875 72.90625 
L 19.671875 8.296875 
L 55.171875 8.296875 
L 55.171875 0 
L 9.8125 0 
z
" id="DejaVuSans-76"/>
       <path d="M 2.984375 54.6875 
L 12.5 54.6875 
L 29.59375 8.796875 
L 46.6875 54.6875 
L 56.203125 54.6875 
L 35.6875 0 
L 23.484375 0 
z
" id="DejaVuSans-118"/>
       <path d="M 18.109375 8.203125 
L 18.109375 -20.796875 
L 9.078125 -20.796875 
L 9.078125 54.6875 
L 18.109375 54.6875 
L 18.109375 46.390625 
Q 20.953125 51.265625 25.265625 53.625 
Q 29.59375 56 35.59375 56 
Q 45.5625 56 51.78125 48.09375 
Q 58.015625 40.1875 58.015625 27.296875 
Q 58.015625 14.40625 51.78125 6.484375 
Q 45.5625 -1.421875 35.59375 -1.421875 
Q 29.59375 -1.421875 25.265625 0.953125 
Q 20.953125 3.328125 18.109375 8.203125 
z
M 48.6875 27.296875 
Q 48.6875 37.203125 44.609375 42.84375 
Q 40.53125 48.484375 33.40625 48.484375 
Q 26.265625 48.484375 22.1875 42.84375 
Q 18.109375 37.203125 18.109375 27.296875 
Q 18.109375 17.390625 22.1875 11.75 
Q 26.265625 6.109375 33.40625 6.109375 
Q 40.53125 6.109375 44.609375 11.75 
Q 48.6875 17.390625 48.6875 27.296875 
z
" id="DejaVuSans-112"/>
       <path d="M 30.609375 48.390625 
Q 23.390625 48.390625 19.1875 42.75 
Q 14.984375 37.109375 14.984375 27.296875 
Q 14.984375 17.484375 19.15625 11.84375 
Q 23.34375 6.203125 30.609375 6.203125 
Q 37.796875 6.203125 41.984375 11.859375 
Q 46.1875 17.53125 46.1875 27.296875 
Q 46.1875 37.015625 41.984375 42.703125 
Q 37.796875 48.390625 30.609375 48.390625 
z
M 30.609375 56 
Q 42.328125 56 49.015625 48.375 
Q 55.71875 40.765625 55.71875 27.296875 
Q 55.71875 13.875 49.015625 6.21875 
Q 42.328125 -1.421875 30.609375 -1.421875 
Q 18.84375 -1.421875 12.171875 6.21875 
Q 5.515625 13.875 5.515625 27.296875 
Q 5.515625 40.765625 12.171875 48.375 
Q 18.84375 56 30.609375 56 
z
" id="DejaVuSans-111"/>
      </defs>
      <use xlink:href="#DejaVuSans-76"/>
      <use x="55.712891" xlink:href="#DejaVuSans-105"/>
      <use x="83.496094" xlink:href="#DejaVuSans-118"/>
      <use x="142.675781" xlink:href="#DejaVuSans-101"/>
      <use x="204.199219" xlink:href="#DejaVuSans-114"/>
      <use x="245.3125" xlink:href="#DejaVuSans-112"/>
      <use x="308.789062" xlink:href="#DejaVuSans-111"/>
      <use x="369.970703" xlink:href="#DejaVuSans-111"/>
      <use x="431.152344" xlink:href="#DejaVuSans-108"/>
     </g>
    </g>
   </g>
  </g>
 </g>
 <defs>
  <clipPath id="pdcacde110d">
   <rect height="271.8" width="390.6" x="63" y="43.2"/>
  </clipPath>
 </defs>
</svg>
