<?xml version="1.0" encoding="utf-8" standalone="no"?>
<!DOCTYPE svg PUBLIC "-//W3C//DTD SVG 1.1//EN"
  "http://www.w3.org/Graphics/SVG/1.1/DTD/svg11.dtd">
<!-- Created with matplotlib (https://matplotlib.org/) -->
<svg height="360pt" version="1.1" viewBox="0 0 504 360" width="504pt" xmlns="http://www.w3.org/2000/svg" xmlns:xlink="http://www.w3.org/1999/xlink">
 <metadata>
  <rdf:RDF xmlns:cc="http://creativecommons.org/ns#" xmlns:dc="http://purl.org/dc/elements/1.1/" xmlns:rdf="http://www.w3.org/1999/02/22-rdf-syntax-ns#">
   <cc:Work>
    <dc:type rdf:resource="http://purl.org/dc/dcmitype/StillImage"/>
    <dc:date>2022-03-21T11:13:48.140677</dc:date>
    <dc:format>image/svg+xml</dc:format>
    <dc:creator>
     <cc:Agent>
      <dc:title>Matplotlib v3.3.4, https://matplotlib.org/</dc:title>
     </cc:Agent>
    </dc:creator>
   </cc:Work>
  </rdf:RDF>
 </metadata>
 <defs>
  <style type="text/css">*{stroke-linecap:butt;stroke-linejoin:round;}</style>
 </defs>
 <g id="figure_1">
  <g id="patch_1">
   <path d="M 0 360 
L 504 360 
L 504 0 
L 0 0 
z
" style="fill:none;"/>
  </g>
  <g id="axes_1">
   <g id="PathCollection_1">
    <defs>
     <path d="M 0 3 
C 0.795609 3 1.55874 2.683901 2.12132 2.12132 
C 2.683901 1.55874 3 0.795609 3 0 
C 3 -0.795609 2.683901 -1.55874 2.12132 -2.12132 
C 1.55874 -2.683901 0.795609 -3 0 -3 
C -0.795609 -3 -1.55874 -2.683901 -2.12132 -2.12132 
C -2.683901 -1.55874 -3 -0.795609 -3 0 
C -3 0.795609 -2.683901 1.55874 -2.12132 2.12132 
C -1.55874 2.683901 -0.795609 3 0 3 
z
" id="m087aefe6cc" style="stroke:#000000;"/>
    </defs>
    <g clip-path="url(#p84a7b3ceaa)">
     <use style="stroke:#000000;" x="220.5" xlink:href="#m087aefe6cc" y="263.228571"/>
     <use style="stroke:#000000;" x="209.16" xlink:href="#m087aefe6cc" y="260.64"/>
     <use style="stroke:#000000;" x="137.97" xlink:href="#m087aefe6cc" y="257.727857"/>
     <use style="stroke:#000000;" x="183.015" xlink:href="#m087aefe6cc" y="266.464286"/>
     <use style="stroke:#000000;" x="331.065" xlink:href="#m087aefe6cc" y="209.839286"/>
     <use style="stroke:#000000;" x="305.55" xlink:href="#m087aefe6cc" y="87.529286"/>
     <use style="stroke:#000000;" x="114.03" xlink:href="#m087aefe6cc" y="227.312143"/>
     <use style="stroke:#000000;" x="217.98" xlink:href="#m087aefe6cc" y="220.193571"/>
     <use style="stroke:#000000;" x="80.01" xlink:href="#m087aefe6cc" y="60.672857"/>
     <use style="stroke:#000000;" x="147.735" xlink:href="#m087aefe6cc" y="54.525"/>
     <use style="stroke:#000000;" x="115.92" xlink:href="#m087aefe6cc" y="93.677143"/>
     <use style="stroke:#000000;" x="130.095" xlink:href="#m087aefe6cc" y="94.324286"/>
     <use style="stroke:#000000;" x="172.305" xlink:href="#m087aefe6cc" y="106.62"/>
     <use style="stroke:#000000;" x="197.505" xlink:href="#m087aefe6cc" y="93.03"/>
     <use style="stroke:#000000;" x="176.715" xlink:href="#m087aefe6cc" y="78.792857"/>
     <use style="stroke:#000000;" x="343.98" xlink:href="#m087aefe6cc" y="262.257857"/>
     <use style="stroke:#000000;" x="203.805" xlink:href="#m087aefe6cc" y="109.208571"/>
     <use style="stroke:#000000;" x="308.07" xlink:href="#m087aefe6cc" y="242.196429"/>
     <use style="stroke:#000000;" x="292.32" xlink:href="#m087aefe6cc" y="148.684286"/>
     <use style="stroke:#000000;" x="322.245" xlink:href="#m087aefe6cc" y="154.185"/>
     <use style="stroke:#000000;" x="250.74" xlink:href="#m087aefe6cc" y="158.067857"/>
     <use style="stroke:#000000;" x="319.41" xlink:href="#m087aefe6cc" y="195.278571"/>
     <use style="stroke:#000000;" x="215.145" xlink:href="#m087aefe6cc" y="149.331429"/>
     <use style="stroke:#000000;" x="81.9" xlink:href="#m087aefe6cc" y="70.38"/>
     <use style="stroke:#000000;" x="172.305" xlink:href="#m087aefe6cc" y="68.438571"/>
     <use style="stroke:#000000;" x="267.75" xlink:href="#m087aefe6cc" y="82.675714"/>
     <use style="stroke:#000000;" x="161.595" xlink:href="#m087aefe6cc" y="112.444286"/>
     <use style="stroke:#000000;" x="164.115" xlink:href="#m087aefe6cc" y="122.151429"/>
     <use style="stroke:#000000;" x="124.74" xlink:href="#m087aefe6cc" y="192.366429"/>
     <use style="stroke:#000000;" x="100.8" xlink:href="#m087aefe6cc" y="216.310714"/>
     <use style="stroke:#000000;" x="273.42" xlink:href="#m087aefe6cc" y="196.249286"/>
     <use style="stroke:#000000;" x="389.655" xlink:href="#m087aefe6cc" y="91.088571"/>
     <use style="stroke:#000000;" x="316.575" xlink:href="#m087aefe6cc" y="98.207143"/>
     <use style="stroke:#000000;" x="321.615" xlink:href="#m087aefe6cc" y="276.171429"/>
     <use style="stroke:#000000;" x="282.24" xlink:href="#m087aefe6cc" y="133.152857"/>
     <use style="stroke:#000000;" x="100.17" xlink:href="#m087aefe6cc" y="69.085714"/>
     <use style="stroke:#000000;" x="250.74" xlink:href="#m087aefe6cc" y="71.027143"/>
     <use style="stroke:#000000;" x="229.95" xlink:href="#m087aefe6cc" y="113.738571"/>
     <use style="stroke:#000000;" x="332.325" xlink:href="#m087aefe6cc" y="211.780714"/>
     <use style="stroke:#000000;" x="279.09" xlink:href="#m087aefe6cc" y="267.758571"/>
     <use style="stroke:#000000;" x="314.685" xlink:href="#m087aefe6cc" y="213.722143"/>
     <use style="stroke:#000000;" x="243.18" xlink:href="#m087aefe6cc" y="97.56"/>
     <use style="stroke:#000000;" x="216.09" xlink:href="#m087aefe6cc" y="265.17"/>
     <use style="stroke:#000000;" x="336.105" xlink:href="#m087aefe6cc" y="102.09"/>
     <use style="stroke:#000000;" x="274.05" xlink:href="#m087aefe6cc" y="220.193571"/>
     <use style="stroke:#000000;" x="264.6" xlink:href="#m087aefe6cc" y="273.582857"/>
     <use style="stroke:#000000;" x="202.545" xlink:href="#m087aefe6cc" y="61.32"/>
     <use style="stroke:#000000;" x="273.735" xlink:href="#m087aefe6cc" y="245.432143"/>
     <use style="stroke:#000000;" x="292.32" xlink:href="#m087aefe6cc" y="208.545"/>
     <use style="stroke:#000000;" x="265.545" xlink:href="#m087aefe6cc" y="105.649286"/>
     <use style="stroke:#000000;" x="113.4" xlink:href="#m087aefe6cc" y="198.837857"/>
     <use style="stroke:#000000;" x="328.545" xlink:href="#m087aefe6cc" y="220.840714"/>
     <use style="stroke:#000000;" x="265.23" xlink:href="#m087aefe6cc" y="57.760714"/>
     <use style="stroke:#000000;" x="217.98" xlink:href="#m087aefe6cc" y="120.21"/>
     <use style="stroke:#000000;" x="316.575" xlink:href="#m087aefe6cc" y="71.027143"/>
     <use style="stroke:#000000;" x="338.625" xlink:href="#m087aefe6cc" y="100.795714"/>
     <use style="stroke:#000000;" x="257.04" xlink:href="#m087aefe6cc" y="191.719286"/>
     <use style="stroke:#000000;" x="391.545" xlink:href="#m087aefe6cc" y="60.672857"/>
     <use style="stroke:#000000;" x="289.485" xlink:href="#m087aefe6cc" y="188.16"/>
     <use style="stroke:#000000;" x="287.91" xlink:href="#m087aefe6cc" y="72.968571"/>
     <use style="stroke:#000000;" x="295.47" xlink:href="#m087aefe6cc" y="80.734286"/>
     <use style="stroke:#000000;" x="245.7" xlink:href="#m087aefe6cc" y="55.819286"/>
     <use style="stroke:#000000;" x="226.17" xlink:href="#m087aefe6cc" y="101.442857"/>
     <use style="stroke:#000000;" x="183.645" xlink:href="#m087aefe6cc" y="130.564286"/>
     <use style="stroke:#000000;" x="315.945" xlink:href="#m087aefe6cc" y="91.088571"/>
     <use style="stroke:#000000;" x="316.575" xlink:href="#m087aefe6cc" y="231.195"/>
     <use style="stroke:#000000;" x="163.485" xlink:href="#m087aefe6cc" y="258.698571"/>
     <use style="stroke:#000000;" x="136.395" xlink:href="#m087aefe6cc" y="291.055714"/>
     <use style="stroke:#000000;" x="296.73" xlink:href="#m087aefe6cc" y="223.429286"/>
     <use style="stroke:#000000;" x="364.455" xlink:href="#m087aefe6cc" y="134.447143"/>
     <use style="stroke:#000000;" x="305.235" xlink:href="#m087aefe6cc" y="176.835"/>
    </g>
   </g>
   <g id="PathCollection_2">
    <defs>
     <path d="M 0 3 
C 0.795609 3 1.55874 2.683901 2.12132 2.12132 
C 2.683901 1.55874 3 0.795609 3 0 
C 3 -0.795609 2.683901 -1.55874 2.12132 -2.12132 
C 1.55874 -2.683901 0.795609 -3 0 -3 
C -0.795609 -3 -1.55874 -2.683901 -2.12132 -2.12132 
C -2.683901 -1.55874 -3 -0.795609 -3 0 
C -3 0.795609 -2.683901 1.55874 -2.12132 2.12132 
C -1.55874 2.683901 -0.795609 3 0 3 
z
" id="mb780bb0c06" style="stroke:#ff0000;"/>
    </defs>
    <g clip-path="url(#p84a7b3ceaa)">
     <use style="fill:#ff0000;stroke:#ff0000;" x="195.93" xlink:href="#mb780bb0c06" y="285.878571"/>
     <use style="fill:#ff0000;stroke:#ff0000;" x="186.165" xlink:href="#mb780bb0c06" y="272.612143"/>
     <use style="fill:#ff0000;stroke:#ff0000;" x="86.625" xlink:href="#mb780bb0c06" y="294.615"/>
     <use style="fill:#ff0000;stroke:#ff0000;" x="136.08" xlink:href="#mb780bb0c06" y="251.256429"/>
     <use style="fill:#ff0000;stroke:#ff0000;" x="171.36" xlink:href="#mb780bb0c06" y="260.316429"/>
     <use style="fill:#ff0000;stroke:#ff0000;" x="152.46" xlink:href="#mb780bb0c06" y="142.86"/>
     <use style="fill:#ff0000;stroke:#ff0000;" x="333.585" xlink:href="#mb780bb0c06" y="191.719286"/>
     <use style="fill:#ff0000;stroke:#ff0000;" x="129.78" xlink:href="#mb780bb0c06" y="240.255"/>
     <use style="fill:#ff0000;stroke:#ff0000;" x="324.45" xlink:href="#mb780bb0c06" y="79.116429"/>
     <use style="fill:#ff0000;stroke:#ff0000;" x="245.07" xlink:href="#mb780bb0c06" y="73.615714"/>
     <use style="fill:#ff0000;stroke:#ff0000;" x="295.155" xlink:href="#mb780bb0c06" y="235.725"/>
     <use style="fill:#ff0000;stroke:#ff0000;" x="288.855" xlink:href="#mb780bb0c06" y="207.897857"/>
     <use style="fill:#ff0000;stroke:#ff0000;" x="257.355" xlink:href="#mb780bb0c06" y="94.647857"/>
     <use style="fill:#ff0000;stroke:#ff0000;" x="235.935" xlink:href="#mb780bb0c06" y="85.587857"/>
     <use style="fill:#ff0000;stroke:#ff0000;" x="197.19" xlink:href="#mb780bb0c06" y="99.177857"/>
     <use style="fill:#ff0000;stroke:#ff0000;" x="157.5" xlink:href="#mb780bb0c06" y="85.587857"/>
     <use style="fill:#ff0000;stroke:#ff0000;" x="246.645" xlink:href="#mb780bb0c06" y="297.203571"/>
     <use style="fill:#ff0000;stroke:#ff0000;" x="155.61" xlink:href="#mb780bb0c06" y="116.974286"/>
     <use style="fill:#ff0000;stroke:#ff0000;" x="120.645" xlink:href="#mb780bb0c06" y="166.157143"/>
     <use style="fill:#ff0000;stroke:#ff0000;" x="118.125" xlink:href="#mb780bb0c06" y="155.155714"/>
     <use style="fill:#ff0000;stroke:#ff0000;" x="152.46" xlink:href="#mb780bb0c06" y="181.041429"/>
     <use style="fill:#ff0000;stroke:#ff0000;" x="158.13" xlink:href="#mb780bb0c06" y="90.765"/>
     <use style="fill:#ff0000;stroke:#ff0000;" x="134.82" xlink:href="#mb780bb0c06" y="78.469286"/>
     <use style="fill:#ff0000;stroke:#ff0000;" x="378.315" xlink:href="#mb780bb0c06" y="290.408571"/>
     <use style="fill:#ff0000;stroke:#ff0000;" x="336.42" xlink:href="#mb780bb0c06" y="131.211429"/>
     <use style="fill:#ff0000;stroke:#ff0000;" x="273.735" xlink:href="#mb780bb0c06" y="257.727857"/>
     <use style="fill:#ff0000;stroke:#ff0000;" x="353.745" xlink:href="#mb780bb0c06" y="226.665"/>
     <use style="fill:#ff0000;stroke:#ff0000;" x="143.01" xlink:href="#mb780bb0c06" y="115.356429"/>
     <use style="fill:#ff0000;stroke:#ff0000;" x="254.205" xlink:href="#mb780bb0c06" y="104.355"/>
     <use style="fill:#ff0000;stroke:#ff0000;" x="240.345" xlink:href="#mb780bb0c06" y="131.858571"/>
     <use style="fill:#ff0000;stroke:#ff0000;" x="242.865" xlink:href="#mb780bb0c06" y="140.271429"/>
     <use style="fill:#ff0000;stroke:#ff0000;" x="104.265" xlink:href="#mb780bb0c06" y="135.741429"/>
     <use style="fill:#ff0000;stroke:#ff0000;" x="112.455" xlink:href="#mb780bb0c06" y="90.117857"/>
     <use style="fill:#ff0000;stroke:#ff0000;" x="422.73" xlink:href="#mb780bb0c06" y="282.642857"/>
     <use style="fill:#ff0000;stroke:#ff0000;" x="254.205" xlink:href="#mb780bb0c06" y="79.116429"/>
     <use style="fill:#ff0000;stroke:#ff0000;" x="257.985" xlink:href="#mb780bb0c06" y="172.628571"/>
     <use style="fill:#ff0000;stroke:#ff0000;" x="232.785" xlink:href="#mb780bb0c06" y="175.217143"/>
     <use style="fill:#ff0000;stroke:#ff0000;" x="349.02" xlink:href="#mb780bb0c06" y="104.355"/>
     <use style="fill:#ff0000;stroke:#ff0000;" x="261.765" xlink:href="#mb780bb0c06" y="124.092857"/>
     <use style="fill:#ff0000;stroke:#ff0000;" x="250.11" xlink:href="#mb780bb0c06" y="243.814286"/>
     <use style="fill:#ff0000;stroke:#ff0000;" x="199.71" xlink:href="#mb780bb0c06" y="131.858571"/>
     <use style="fill:#ff0000;stroke:#ff0000;" x="308.7" xlink:href="#mb780bb0c06" y="294.615"/>
     <use style="fill:#ff0000;stroke:#ff0000;" x="193.41" xlink:href="#mb780bb0c06" y="76.527857"/>
     <use style="fill:#ff0000;stroke:#ff0000;" x="163.8" xlink:href="#mb780bb0c06" y="94.000714"/>
     <use style="fill:#ff0000;stroke:#ff0000;" x="304.92" xlink:href="#mb780bb0c06" y="135.094286"/>
     <use style="fill:#ff0000;stroke:#ff0000;" x="242.865" xlink:href="#mb780bb0c06" y="64.879286"/>
     <use style="fill:#ff0000;stroke:#ff0000;" x="236.565" xlink:href="#mb780bb0c06" y="84.293571"/>
     <use style="fill:#ff0000;stroke:#ff0000;" x="265.86" xlink:href="#mb780bb0c06" y="221.487857"/>
     <use style="fill:#ff0000;stroke:#ff0000;" x="232.785" xlink:href="#mb780bb0c06" y="116.327143"/>
     <use style="fill:#ff0000;stroke:#ff0000;" x="173.25" xlink:href="#mb780bb0c06" y="135.741429"/>
     <use style="fill:#ff0000;stroke:#ff0000;" x="345.555" xlink:href="#mb780bb0c06" y="237.019286"/>
     <use style="fill:#ff0000;stroke:#ff0000;" x="168.84" xlink:href="#mb780bb0c06" y="122.798571"/>
     <use style="fill:#ff0000;stroke:#ff0000;" x="237.195" xlink:href="#mb780bb0c06" y="224.076429"/>
     <use style="fill:#ff0000;stroke:#ff0000;" x="284.13" xlink:href="#mb780bb0c06" y="281.995714"/>
     <use style="fill:#ff0000;stroke:#ff0000;" x="249.795" xlink:href="#mb780bb0c06" y="72.645"/>
     <use style="fill:#ff0000;stroke:#ff0000;" x="210.42" xlink:href="#mb780bb0c06" y="283.613571"/>
     <use style="fill:#ff0000;stroke:#ff0000;" x="223.335" xlink:href="#mb780bb0c06" y="275.847857"/>
     <use style="fill:#ff0000;stroke:#ff0000;" x="144.9" xlink:href="#mb780bb0c06" y="286.849286"/>
     <use style="fill:#ff0000;stroke:#ff0000;" x="116.235" xlink:href="#mb780bb0c06" y="269.376429"/>
     <use style="fill:#ff0000;stroke:#ff0000;" x="212.31" xlink:href="#mb780bb0c06" y="159.038571"/>
     <use style="fill:#ff0000;stroke:#ff0000;" x="203.49" xlink:href="#mb780bb0c06" y="122.798571"/>
     <use style="fill:#ff0000;stroke:#ff0000;" x="194.985" xlink:href="#mb780bb0c06" y="189.130714"/>
     <use style="fill:#ff0000;stroke:#ff0000;" x="418.95" xlink:href="#mb780bb0c06" y="205.309286"/>
     <use style="fill:#ff0000;stroke:#ff0000;" x="251.685" xlink:href="#mb780bb0c06" y="77.175"/>
     <use style="fill:#ff0000;stroke:#ff0000;" x="258.615" xlink:href="#mb780bb0c06" y="95.942143"/>
     <use style="fill:#ff0000;stroke:#ff0000;" x="260.505" xlink:href="#mb780bb0c06" y="239.607857"/>
     <use style="fill:#ff0000;stroke:#ff0000;" x="312.795" xlink:href="#mb780bb0c06" y="148.037143"/>
     <use style="fill:#ff0000;stroke:#ff0000;" x="236.88" xlink:href="#mb780bb0c06" y="126.034286"/>
     <use style="fill:#ff0000;stroke:#ff0000;" x="288.225" xlink:href="#mb780bb0c06" y="209.192143"/>
     <use style="fill:#ff0000;stroke:#ff0000;" x="310.59" xlink:href="#mb780bb0c06" y="200.455714"/>
     <use style="fill:#ff0000;stroke:#ff0000;" x="377.055" xlink:href="#mb780bb0c06" y="263.875714"/>
     <use style="fill:#ff0000;stroke:#ff0000;" x="264.915" xlink:href="#mb780bb0c06" y="190.748571"/>
     <use style="fill:#ff0000;stroke:#ff0000;" x="278.145" xlink:href="#mb780bb0c06" y="175.864286"/>
     <use style="fill:#ff0000;stroke:#ff0000;" x="254.835" xlink:href="#mb780bb0c06" y="293.320714"/>
     <use style="fill:#ff0000;stroke:#ff0000;" x="130.41" xlink:href="#mb780bb0c06" y="209.192143"/>
     <use style="fill:#ff0000;stroke:#ff0000;" x="269.325" xlink:href="#mb780bb0c06" y="234.430714"/>
     <use style="fill:#ff0000;stroke:#ff0000;" x="244.755" xlink:href="#mb780bb0c06" y="89.470714"/>
     <use style="fill:#ff0000;stroke:#ff0000;" x="267.435" xlink:href="#mb780bb0c06" y="168.098571"/>
     <use style="fill:#ff0000;stroke:#ff0000;" x="252.315" xlink:href="#mb780bb0c06" y="297.203571"/>
     <use style="fill:#ff0000;stroke:#ff0000;" x="259.245" xlink:href="#mb780bb0c06" y="260.963571"/>
     <use style="fill:#ff0000;stroke:#ff0000;" x="332.325" xlink:href="#mb780bb0c06" y="252.874286"/>
     <use style="fill:#ff0000;stroke:#ff0000;" x="371.385" xlink:href="#mb780bb0c06" y="226.017857"/>
     <use style="fill:#ff0000;stroke:#ff0000;" x="183.33" xlink:href="#mb780bb0c06" y="73.939286"/>
     <use style="fill:#ff0000;stroke:#ff0000;" x="227.745" xlink:href="#mb780bb0c06" y="168.745714"/>
     <use style="fill:#ff0000;stroke:#ff0000;" x="139.23" xlink:href="#mb780bb0c06" y="156.45"/>
    </g>
   </g>
   <g id="patch_2">
    <path clip-path="url(#p84a7b3ceaa)" d="M 69.3 308.528571 
L 447.3 308.528571 
L 447.3 49.671429 
L 69.3 49.671429 
z
" style="fill:none;stroke:#000000;stroke-linejoin:miter;"/>
   </g>
   <g id="patch_3">
    <path clip-path="url(#p84a7b3ceaa)" d="M 69.3 236.372143 
L 115.29 236.372143 
L 115.29 122.151429 
L 69.3 122.151429 
z
" style="fill:none;stroke:#000000;stroke-linejoin:miter;"/>
   </g>
   <g id="patch_4">
    <path clip-path="url(#p84a7b3ceaa)" d="M 401.31 236.372143 
L 447.3 236.372143 
L 447.3 122.151429 
L 401.31 122.151429 
z
" style="fill:none;stroke:#000000;stroke-linejoin:miter;"/>
   </g>
   <g id="patch_5">
    <path d="M 258.3 308.528571 
Q 258.3 179.1 258.3 49.671429 
" style="fill:none;stroke:#000000;stroke-linecap:round;"/>
   </g>
   <g id="patch_6">
    <path clip-path="url(#p84a7b3ceaa)" d="M 69.3 204.985714 
L 84.735 204.985714 
L 84.735 153.214286 
L 69.3 153.214286 
z
" style="fill:none;stroke:#000000;stroke-linejoin:miter;"/>
   </g>
   <g id="patch_7">
    <path clip-path="url(#p84a7b3ceaa)" d="M 431.865 204.985714 
L 447.3 204.985714 
L 447.3 153.214286 
L 431.865 153.214286 
z
" style="fill:none;stroke:#000000;stroke-linejoin:miter;"/>
   </g>
   <g id="patch_8">
    <path clip-path="url(#p84a7b3ceaa)" d="M 258.3 205.309286 
C 265.066657 205.309286 271.55708 202.54771 276.34183 197.632764 
C 281.126579 192.717817 283.815 186.050784 283.815 179.1 
C 283.815 172.149216 281.126579 165.482183 276.34183 160.567236 
C 271.55708 155.65229 265.066657 152.890714 258.3 152.890714 
C 251.533343 152.890714 245.04292 155.65229 240.25817 160.567236 
C 235.473421 165.482183 232.785 172.149216 232.785 179.1 
C 232.785 186.050784 235.473421 192.717817 240.25817 197.632764 
C 245.04292 202.54771 251.533343 205.309286 258.3 205.309286 
z
" style="fill:none;stroke:#000000;stroke-linejoin:miter;"/>
   </g>
   <g id="patch_9">
    <path clip-path="url(#p84a7b3ceaa)" d="M 258.3 181.397357 
C 258.893127 181.397357 259.46204 181.155293 259.881444 180.724477 
C 260.300848 180.293661 260.5365 179.709266 260.5365 179.1 
C 260.5365 178.490734 260.300848 177.906339 259.881444 177.475523 
C 259.46204 177.044707 258.893127 176.802643 258.3 176.802643 
C 257.706873 176.802643 257.13796 177.044707 256.718556 177.475523 
C 256.299152 177.906339 256.0635 178.490734 256.0635 179.1 
C 256.0635 179.709266 256.299152 180.293661 256.718556 180.724477 
C 257.13796 181.155293 257.706873 181.397357 258.3 181.397357 
z
" style="stroke:#000000;stroke-linejoin:miter;"/>
   </g>
   <g id="patch_10">
    <path clip-path="url(#p84a7b3ceaa)" d="M 416.745 181.397357 
C 417.338127 181.397357 417.90704 181.155293 418.326444 180.724477 
C 418.745848 180.293661 418.9815 179.709266 418.9815 179.1 
C 418.9815 178.490734 418.745848 177.906339 418.326444 177.475523 
C 417.90704 177.044707 417.338127 176.802643 416.745 176.802643 
C 416.151873 176.802643 415.58296 177.044707 415.163556 177.475523 
C 414.744152 177.906339 414.5085 178.490734 414.5085 179.1 
C 414.5085 179.709266 414.744152 180.293661 415.163556 180.724477 
C 415.58296 181.155293 416.151873 181.397357 416.745 181.397357 
z
" style="stroke:#000000;stroke-linejoin:miter;"/>
   </g>
   <g id="patch_11">
    <path clip-path="url(#p84a7b3ceaa)" d="M 99.855 181.397357 
C 100.448127 181.397357 101.01704 181.155293 101.436444 180.724477 
C 101.855848 180.293661 102.0915 179.709266 102.0915 179.1 
C 102.0915 178.490734 101.855848 177.906339 101.436444 177.475523 
C 101.01704 177.044707 100.448127 176.802643 99.855 176.802643 
C 99.261873 176.802643 98.69296 177.044707 98.273556 177.475523 
C 97.854152 177.906339 97.6185 178.490734 97.6185 179.1 
C 97.6185 179.709266 97.854152 180.293661 98.273556 180.724477 
C 98.69296 181.155293 99.261873 181.397357 99.855 181.397357 
z
" style="stroke:#000000;stroke-linejoin:miter;"/>
   </g>
   <g id="patch_12">
    <path clip-path="url(#p84a7b3ceaa)" d="M 116.255726 199.177478 
C 119.109749 196.717503 121.40491 193.645 122.979443 190.176523 
C 124.553976 186.708045 125.37 182.927041 125.37 179.1 
C 125.37 175.272959 124.553976 171.491955 122.979443 168.023477 
C 121.40491 164.555 119.109749 161.482497 116.255726 159.022522 
" style="fill:none;stroke:#000000;stroke-linejoin:miter;"/>
   </g>
   <g id="patch_13">
    <path clip-path="url(#p84a7b3ceaa)" d="M 400.344274 159.022522 
C 397.490251 161.482497 395.19509 164.555 393.620557 168.023477 
C 392.046024 171.491955 391.23 175.272959 391.23 179.1 
C 391.23 182.927041 392.046024 186.708045 393.620557 190.176523 
C 395.19509 193.645 397.490251 196.717503 400.344274 199.177478 
" style="fill:none;stroke:#000000;stroke-linejoin:miter;"/>
   </g>
   <g id="text_1">
    <!-- Pressure Map: First Half -->
    <g transform="translate(187.686563 37.2)scale(0.12 -0.12)">
     <defs>
      <path d="M 19.671875 64.796875 
L 19.671875 37.40625 
L 32.078125 37.40625 
Q 38.96875 37.40625 42.71875 40.96875 
Q 46.484375 44.53125 46.484375 51.125 
Q 46.484375 57.671875 42.71875 61.234375 
Q 38.96875 64.796875 32.078125 64.796875 
z
M 9.8125 72.90625 
L 32.078125 72.90625 
Q 44.34375 72.90625 50.609375 67.359375 
Q 56.890625 61.8125 56.890625 51.125 
Q 56.890625 40.328125 50.609375 34.8125 
Q 44.34375 29.296875 32.078125 29.296875 
L 19.671875 29.296875 
L 19.671875 0 
L 9.8125 0 
z
" id="DejaVuSans-80"/>
      <path d="M 41.109375 46.296875 
Q 39.59375 47.171875 37.8125 47.578125 
Q 36.03125 48 33.890625 48 
Q 26.265625 48 22.1875 43.046875 
Q 18.109375 38.09375 18.109375 28.8125 
L 18.109375 0 
L 9.078125 0 
L 9.078125 54.6875 
L 18.109375 54.6875 
L 18.109375 46.1875 
Q 20.953125 51.171875 25.484375 53.578125 
Q 30.03125 56 36.53125 56 
Q 37.453125 56 38.578125 55.875 
Q 39.703125 55.765625 41.0625 55.515625 
z
" id="DejaVuSans-114"/>
      <path d="M 56.203125 29.59375 
L 56.203125 25.203125 
L 14.890625 25.203125 
Q 15.484375 15.921875 20.484375 11.0625 
Q 25.484375 6.203125 34.421875 6.203125 
Q 39.59375 6.203125 44.453125 7.46875 
Q 49.3125 8.734375 54.109375 11.28125 
L 54.109375 2.78125 
Q 49.265625 0.734375 44.1875 -0.34375 
Q 39.109375 -1.421875 33.890625 -1.421875 
Q 20.796875 -1.421875 13.15625 6.1875 
Q 5.515625 13.8125 5.515625 26.8125 
Q 5.515625 40.234375 12.765625 48.109375 
Q 20.015625 56 32.328125 56 
Q 43.359375 56 49.78125 48.890625 
Q 56.203125 41.796875 56.203125 29.59375 
z
M 47.21875 32.234375 
Q 47.125 39.59375 43.09375 43.984375 
Q 39.0625 48.390625 32.421875 48.390625 
Q 24.90625 48.390625 20.390625 44.140625 
Q 15.875 39.890625 15.1875 32.171875 
z
" id="DejaVuSans-101"/>
      <path d="M 44.28125 53.078125 
L 44.28125 44.578125 
Q 40.484375 46.53125 36.375 47.5 
Q 32.28125 48.484375 27.875 48.484375 
Q 21.1875 48.484375 17.84375 46.4375 
Q 14.5 44.390625 14.5 40.28125 
Q 14.5 37.15625 16.890625 35.375 
Q 19.28125 33.59375 26.515625 31.984375 
L 29.59375 31.296875 
Q 39.15625 29.25 43.1875 25.515625 
Q 47.21875 21.78125 47.21875 15.09375 
Q 47.21875 7.46875 41.1875 3.015625 
Q 35.15625 -1.421875 24.609375 -1.421875 
Q 20.21875 -1.421875 15.453125 -0.5625 
Q 10.6875 0.296875 5.421875 2 
L 5.421875 11.28125 
Q 10.40625 8.6875 15.234375 7.390625 
Q 20.0625 6.109375 24.8125 6.109375 
Q 31.15625 6.109375 34.5625 8.28125 
Q 37.984375 10.453125 37.984375 14.40625 
Q 37.984375 18.0625 35.515625 20.015625 
Q 33.0625 21.96875 24.703125 23.78125 
L 21.578125 24.515625 
Q 13.234375 26.265625 9.515625 29.90625 
Q 5.8125 33.546875 5.8125 39.890625 
Q 5.8125 47.609375 11.28125 51.796875 
Q 16.75 56 26.8125 56 
Q 31.78125 56 36.171875 55.265625 
Q 40.578125 54.546875 44.28125 53.078125 
z
" id="DejaVuSans-115"/>
      <path d="M 8.5 21.578125 
L 8.5 54.6875 
L 17.484375 54.6875 
L 17.484375 21.921875 
Q 17.484375 14.15625 20.5 10.265625 
Q 23.53125 6.390625 29.59375 6.390625 
Q 36.859375 6.390625 41.078125 11.03125 
Q 45.3125 15.671875 45.3125 23.6875 
L 45.3125 54.6875 
L 54.296875 54.6875 
L 54.296875 0 
L 45.3125 0 
L 45.3125 8.40625 
Q 42.046875 3.421875 37.71875 1 
Q 33.40625 -1.421875 27.6875 -1.421875 
Q 18.265625 -1.421875 13.375 4.4375 
Q 8.5 10.296875 8.5 21.578125 
z
M 31.109375 56 
z
" id="DejaVuSans-117"/>
      <path id="DejaVuSans-32"/>
      <path d="M 9.8125 72.90625 
L 24.515625 72.90625 
L 43.109375 23.296875 
L 61.8125 72.90625 
L 76.515625 72.90625 
L 76.515625 0 
L 66.890625 0 
L 66.890625 64.015625 
L 48.09375 14.015625 
L 38.1875 14.015625 
L 19.390625 64.015625 
L 19.390625 0 
L 9.8125 0 
z
" id="DejaVuSans-77"/>
      <path d="M 34.28125 27.484375 
Q 23.390625 27.484375 19.1875 25 
Q 14.984375 22.515625 14.984375 16.5 
Q 14.984375 11.71875 18.140625 8.90625 
Q 21.296875 6.109375 26.703125 6.109375 
Q 34.1875 6.109375 38.703125 11.40625 
Q 43.21875 16.703125 43.21875 25.484375 
L 43.21875 27.484375 
z
M 52.203125 31.203125 
L 52.203125 0 
L 43.21875 0 
L 43.21875 8.296875 
Q 40.140625 3.328125 35.546875 0.953125 
Q 30.953125 -1.421875 24.3125 -1.421875 
Q 15.921875 -1.421875 10.953125 3.296875 
Q 6 8.015625 6 15.921875 
Q 6 25.140625 12.171875 29.828125 
Q 18.359375 34.515625 30.609375 34.515625 
L 43.21875 34.515625 
L 43.21875 35.40625 
Q 43.21875 41.609375 39.140625 45 
Q 35.0625 48.390625 27.6875 48.390625 
Q 23 48.390625 18.546875 47.265625 
Q 14.109375 46.140625 10.015625 43.890625 
L 10.015625 52.203125 
Q 14.9375 54.109375 19.578125 55.046875 
Q 24.21875 56 28.609375 56 
Q 40.484375 56 46.34375 49.84375 
Q 52.203125 43.703125 52.203125 31.203125 
z
" id="DejaVuSans-97"/>
      <path d="M 18.109375 8.203125 
L 18.109375 -20.796875 
L 9.078125 -20.796875 
L 9.078125 54.6875 
L 18.109375 54.6875 
L 18.109375 46.390625 
Q 20.953125 51.265625 25.265625 53.625 
Q 29.59375 56 35.59375 56 
Q 45.5625 56 51.78125 48.09375 
Q 58.015625 40.1875 58.015625 27.296875 
Q 58.015625 14.40625 51.78125 6.484375 
Q 45.5625 -1.421875 35.59375 -1.421875 
Q 29.59375 -1.421875 25.265625 0.953125 
Q 20.953125 3.328125 18.109375 8.203125 
z
M 48.6875 27.296875 
Q 48.6875 37.203125 44.609375 42.84375 
Q 40.53125 48.484375 33.40625 48.484375 
Q 26.265625 48.484375 22.1875 42.84375 
Q 18.109375 37.203125 18.109375 27.296875 
Q 18.109375 17.390625 22.1875 11.75 
Q 26.265625 6.109375 33.40625 6.109375 
Q 40.53125 6.109375 44.609375 11.75 
Q 48.6875 17.390625 48.6875 27.296875 
z
" id="DejaVuSans-112"/>
      <path d="M 11.71875 12.40625 
L 22.015625 12.40625 
L 22.015625 0 
L 11.71875 0 
z
M 11.71875 51.703125 
L 22.015625 51.703125 
L 22.015625 39.3125 
L 11.71875 39.3125 
z
" id="DejaVuSans-58"/>
      <path d="M 9.8125 72.90625 
L 51.703125 72.90625 
L 51.703125 64.59375 
L 19.671875 64.59375 
L 19.671875 43.109375 
L 48.578125 43.109375 
L 48.578125 34.8125 
L 19.671875 34.8125 
L 19.671875 0 
L 9.8125 0 
z
" id="DejaVuSans-70"/>
      <path d="M 9.421875 54.6875 
L 18.40625 54.6875 
L 18.40625 0 
L 9.421875 0 
z
M 9.421875 75.984375 
L 18.40625 75.984375 
L 18.40625 64.59375 
L 9.421875 64.59375 
z
" id="DejaVuSans-105"/>
      <path d="M 18.3125 70.21875 
L 18.3125 54.6875 
L 36.8125 54.6875 
L 36.8125 47.703125 
L 18.3125 47.703125 
L 18.3125 18.015625 
Q 18.3125 11.328125 20.140625 9.421875 
Q 21.96875 7.515625 27.59375 7.515625 
L 36.8125 7.515625 
L 36.8125 0 
L 27.59375 0 
Q 17.1875 0 13.234375 3.875 
Q 9.28125 7.765625 9.28125 18.015625 
L 9.28125 47.703125 
L 2.6875 47.703125 
L 2.6875 54.6875 
L 9.28125 54.6875 
L 9.28125 70.21875 
z
" id="DejaVuSans-116"/>
      <path d="M 9.8125 72.90625 
L 19.671875 72.90625 
L 19.671875 43.015625 
L 55.515625 43.015625 
L 55.515625 72.90625 
L 65.375 72.90625 
L 65.375 0 
L 55.515625 0 
L 55.515625 34.71875 
L 19.671875 34.71875 
L 19.671875 0 
L 9.8125 0 
z
" id="DejaVuSans-72"/>
      <path d="M 9.421875 75.984375 
L 18.40625 75.984375 
L 18.40625 0 
L 9.421875 0 
z
" id="DejaVuSans-108"/>
      <path d="M 37.109375 75.984375 
L 37.109375 68.5 
L 28.515625 68.5 
Q 23.6875 68.5 21.796875 66.546875 
Q 19.921875 64.59375 19.921875 59.515625 
L 19.921875 54.6875 
L 34.71875 54.6875 
L 34.71875 47.703125 
L 19.921875 47.703125 
L 19.921875 0 
L 10.890625 0 
L 10.890625 47.703125 
L 2.296875 47.703125 
L 2.296875 54.6875 
L 10.890625 54.6875 
L 10.890625 58.5 
Q 10.890625 67.625 15.140625 71.796875 
Q 19.390625 75.984375 28.609375 75.984375 
z
" id="DejaVuSans-102"/>
     </defs>
     <use xlink:href="#DejaVuSans-80"/>
     <use x="58.552734" xlink:href="#DejaVuSans-114"/>
     <use x="97.416016" xlink:href="#DejaVuSans-101"/>
     <use x="158.939453" xlink:href="#DejaVuSans-115"/>
     <use x="211.039062" xlink:href="#DejaVuSans-115"/>
     <use x="263.138672" xlink:href="#DejaVuSans-117"/>
     <use x="326.517578" xlink:href="#DejaVuSans-114"/>
     <use x="365.380859" xlink:href="#DejaVuSans-101"/>
     <use x="426.904297" xlink:href="#DejaVuSans-32"/>
     <use x="458.691406" xlink:href="#DejaVuSans-77"/>
     <use x="544.970703" xlink:href="#DejaVuSans-97"/>
     <use x="606.25" xlink:href="#DejaVuSans-112"/>
     <use x="669.726562" xlink:href="#DejaVuSans-58"/>
     <use x="703.417969" xlink:href="#DejaVuSans-32"/>
     <use x="735.205078" xlink:href="#DejaVuSans-70"/>
     <use x="785.474609" xlink:href="#DejaVuSans-105"/>
     <use x="813.257812" xlink:href="#DejaVuSans-114"/>
     <use x="854.371094" xlink:href="#DejaVuSans-115"/>
     <use x="906.470703" xlink:href="#DejaVuSans-116"/>
     <use x="945.679688" xlink:href="#DejaVuSans-32"/>
     <use x="977.466797" xlink:href="#DejaVuSans-72"/>
     <use x="1052.662109" xlink:href="#DejaVuSans-97"/>
     <use x="1113.941406" xlink:href="#DejaVuSans-108"/>
     <use x="1141.724609" xlink:href="#DejaVuSans-102"/>
    </g>
   </g>
   <g id="legend_1">
    <g id="patch_14">
     <path d="M 368.703125 310 
L 446.6 310 
Q 448.6 310 448.6 308 
L 448.6 279.64375 
Q 448.6 277.64375 446.6 277.64375 
L 368.703125 277.64375 
Q 366.703125 277.64375 366.703125 279.64375 
L 366.703125 308 
Q 366.703125 310 368.703125 310 
z
" style="fill:#ffffff;opacity:0.8;stroke:#cccccc;stroke-linejoin:miter;"/>
    </g>
    <g id="PathCollection_3">
     <g>
      <use style="stroke:#000000;" x="380.703125" xlink:href="#m087aefe6cc" y="286.617188"/>
     </g>
    </g>
    <g id="text_2">
     <!-- AC Milan -->
     <g transform="translate(398.703125 289.242188)scale(0.1 -0.1)">
      <defs>
       <path d="M 34.1875 63.1875 
L 20.796875 26.90625 
L 47.609375 26.90625 
z
M 28.609375 72.90625 
L 39.796875 72.90625 
L 67.578125 0 
L 57.328125 0 
L 50.6875 18.703125 
L 17.828125 18.703125 
L 11.1875 0 
L 0.78125 0 
z
" id="DejaVuSans-65"/>
       <path d="M 64.40625 67.28125 
L 64.40625 56.890625 
Q 59.421875 61.53125 53.78125 63.8125 
Q 48.140625 66.109375 41.796875 66.109375 
Q 29.296875 66.109375 22.65625 58.46875 
Q 16.015625 50.828125 16.015625 36.375 
Q 16.015625 21.96875 22.65625 14.328125 
Q 29.296875 6.6875 41.796875 6.6875 
Q 48.140625 6.6875 53.78125 8.984375 
Q 59.421875 11.28125 64.40625 15.921875 
L 64.40625 5.609375 
Q 59.234375 2.09375 53.4375 0.328125 
Q 47.65625 -1.421875 41.21875 -1.421875 
Q 24.65625 -1.421875 15.125 8.703125 
Q 5.609375 18.84375 5.609375 36.375 
Q 5.609375 53.953125 15.125 64.078125 
Q 24.65625 74.21875 41.21875 74.21875 
Q 47.75 74.21875 53.53125 72.484375 
Q 59.328125 70.75 64.40625 67.28125 
z
" id="DejaVuSans-67"/>
       <path d="M 54.890625 33.015625 
L 54.890625 0 
L 45.90625 0 
L 45.90625 32.71875 
Q 45.90625 40.484375 42.875 44.328125 
Q 39.84375 48.1875 33.796875 48.1875 
Q 26.515625 48.1875 22.3125 43.546875 
Q 18.109375 38.921875 18.109375 30.90625 
L 18.109375 0 
L 9.078125 0 
L 9.078125 54.6875 
L 18.109375 54.6875 
L 18.109375 46.1875 
Q 21.34375 51.125 25.703125 53.5625 
Q 30.078125 56 35.796875 56 
Q 45.21875 56 50.046875 50.171875 
Q 54.890625 44.34375 54.890625 33.015625 
z
" id="DejaVuSans-110"/>
      </defs>
      <use xlink:href="#DejaVuSans-65"/>
      <use x="66.658203" xlink:href="#DejaVuSans-67"/>
      <use x="136.482422" xlink:href="#DejaVuSans-32"/>
      <use x="168.269531" xlink:href="#DejaVuSans-77"/>
      <use x="254.548828" xlink:href="#DejaVuSans-105"/>
      <use x="282.332031" xlink:href="#DejaVuSans-108"/>
      <use x="310.115234" xlink:href="#DejaVuSans-97"/>
      <use x="371.394531" xlink:href="#DejaVuSans-110"/>
     </g>
    </g>
    <g id="PathCollection_4">
     <g>
      <use style="fill:#ff0000;stroke:#ff0000;" x="380.703125" xlink:href="#mb780bb0c06" y="301.295313"/>
     </g>
    </g>
    <g id="text_3">
     <!-- Liverpool -->
     <g transform="translate(398.703125 303.920313)scale(0.1 -0.1)">
      <defs>
       <path d="M 9.8125 72.90625 
L 19.671875 72.90625 
L 19.671875 8.296875 
L 55.171875 8.296875 
L 55.171875 0 
L 9.8125 0 
z
" id="DejaVuSans-76"/>
       <path d="M 2.984375 54.6875 
L 12.5 54.6875 
L 29.59375 8.796875 
L 46.6875 54.6875 
L 56.203125 54.6875 
L 35.6875 0 
L 23.484375 0 
z
" id="DejaVuSans-118"/>
       <path d="M 30.609375 48.390625 
Q 23.390625 48.390625 19.1875 42.75 
Q 14.984375 37.109375 14.984375 27.296875 
Q 14.984375 17.484375 19.15625 11.84375 
Q 23.34375 6.203125 30.609375 6.203125 
Q 37.796875 6.203125 41.984375 11.859375 
Q 46.1875 17.53125 46.1875 27.296875 
Q 46.1875 37.015625 41.984375 42.703125 
Q 37.796875 48.390625 30.609375 48.390625 
z
M 30.609375 56 
Q 42.328125 56 49.015625 48.375 
Q 55.71875 40.765625 55.71875 27.296875 
Q 55.71875 13.875 49.015625 6.21875 
Q 42.328125 -1.421875 30.609375 -1.421875 
Q 18.84375 -1.421875 12.171875 6.21875 
Q 5.515625 13.875 5.515625 27.296875 
Q 5.515625 40.765625 12.171875 48.375 
Q 18.84375 56 30.609375 56 
z
" id="DejaVuSans-111"/>
      </defs>
      <use xlink:href="#DejaVuSans-76"/>
      <use x="55.712891" xlink:href="#DejaVuSans-105"/>
      <use x="83.496094" xlink:href="#DejaVuSans-118"/>
      <use x="142.675781" xlink:href="#DejaVuSans-101"/>
      <use x="204.199219" xlink:href="#DejaVuSans-114"/>
      <use x="245.3125" xlink:href="#DejaVuSans-112"/>
      <use x="308.789062" xlink:href="#DejaVuSans-111"/>
      <use x="369.970703" xlink:href="#DejaVuSans-111"/>
      <use x="431.152344" xlink:href="#DejaVuSans-108"/>
     </g>
    </g>
   </g>
  </g>
 </g>
 <defs>
  <clipPath id="p84a7b3ceaa">
   <rect height="271.8" width="390.6" x="63" y="43.2"/>
  </clipPath>
 </defs>
</svg>
